<svg width="290" height="205" viewBox="0 0 290 205" fill="none" xmlns="http://www.w3.org/2000/svg">
<g clip-path="url(#clip0_4002_2)">
<path fill-rule="evenodd" clip-rule="evenodd" d="M27.4985 0.106934C42.6263 0.106934 54.8907 12.3696 54.8907 27.498C54.8907 42.6265 42.6263 54.8945 27.4985 54.8945C12.3707 54.8945 0.106323 42.6276 0.106323 27.498C0.106323 12.3685 12.3707 0.106934 27.4985 0.106934ZM25.2237 15.8721C25.6891 16.3398 26.2883 16.6512 26.9378 16.7668V19.0162H28.0603V16.7668C29.8119 16.4575 30.9803 14.787 30.6711 13.0363C30.3619 11.2845 28.6916 10.1159 26.941 10.4252C25.1905 10.7344 24.021 12.4049 24.3302 14.1556C24.4447 14.8063 24.7572 15.4055 25.2248 15.8732L25.2237 15.8721ZM41.6258 24.4064V35.0864H42.4337C43.3721 35.0831 44.1318 34.3234 44.1339 33.3848V26.1079C44.1307 25.1694 43.371 24.4096 42.4337 24.4064H41.6258ZM13.3712 35.0864V24.4064H12.5634C11.625 24.4107 10.8663 25.1694 10.8631 26.1079V33.3848C10.8663 34.3234 11.626 35.0821 12.5634 35.0864H13.3712ZM37.166 20.1387H17.831C15.9906 20.1441 14.5001 21.6359 14.4947 23.4765V36.0163C14.5011 37.8569 15.9917 39.3476 17.831 39.354H24.1355V39.3562C24.3356 39.3562 24.5207 39.4632 24.6202 39.6366L25.229 40.6906C25.2355 40.7003 25.2408 40.7088 25.2462 40.7195L27.4996 44.6223L30.3522 39.6815C30.4432 39.4814 30.6433 39.354 30.8626 39.354H37.1671C39.0075 39.3476 40.498 37.8569 40.5045 36.0163V23.4765C40.4991 21.6359 39.0086 20.1452 37.1671 20.1387H37.166ZM23.1746 33.4041C24.4201 35.7926 27.3658 36.7183 29.7541 35.4727C30.639 35.0115 31.3602 34.2891 31.8224 33.4041C31.9658 33.1302 31.8599 32.7931 31.5859 32.6497C31.312 32.5063 30.975 32.6122 30.8316 32.8862C29.8707 34.7268 27.6002 35.4406 25.7587 34.4796C25.0771 34.1243 24.5207 33.5678 24.1654 32.8862C24.0242 32.6122 23.6872 32.5052 23.4122 32.6465C23.1382 32.7877 23.0312 33.1248 23.1725 33.3998C23.1725 33.4009 23.1735 33.403 23.1746 33.4041ZM34.3412 25.1106C32.8881 25.1106 31.7101 26.2899 31.7101 27.7431C31.7101 29.1963 32.8892 30.3746 34.3423 30.3746C35.7954 30.3746 36.9734 29.1953 36.9734 27.742C36.9734 27.0443 36.6963 26.3744 36.202 25.8811C35.7087 25.3867 35.0389 25.1095 34.3412 25.1106ZM35.4091 26.6751C34.8195 26.0855 33.864 26.0844 33.2733 26.6751C32.6838 27.2648 32.6827 28.2204 33.2733 28.8111C33.8629 29.4007 34.8184 29.4018 35.4091 28.8111C35.6926 28.5275 35.8521 28.1433 35.8521 27.7431C35.8521 27.3429 35.6937 26.9587 35.4102 26.6751H35.4091ZM20.6558 25.1106C19.2017 25.1106 18.0236 26.2888 18.0236 27.7431C18.0236 29.1974 19.2017 30.3756 20.6558 30.3756C22.11 30.3756 23.288 29.1974 23.288 27.7431C23.288 27.0443 23.0109 26.3744 22.5166 25.8811C22.0233 25.3867 21.3545 25.1095 20.6569 25.1106H20.6558ZM21.7226 26.6751C21.133 26.0855 20.1775 26.0844 19.5869 26.6751C18.9973 27.2648 18.9962 28.2204 19.5869 28.8111C20.1765 29.4007 21.132 29.4018 21.7226 28.8111C22.0062 28.5275 22.1656 28.1433 22.1656 27.7431C22.1656 27.3429 22.0072 26.9587 21.7237 26.6762L21.7226 26.6751Z" stroke="#686868" stroke-width="1.4959" stroke-miterlimit="10"/>
</g>
<g clip-path="url(#clip1_4002_2)">
<path fill-rule="evenodd" clip-rule="evenodd" d="M28.4985 75.1089C43.6263 75.1089 55.8907 87.5945 55.8907 102.998C55.8907 118.402 43.6263 130.893 28.4985 130.893C13.3707 130.893 1.10632 118.403 1.10632 102.998C1.10632 87.5934 13.3707 75.1089 28.4985 75.1089ZM26.2237 91.1607C26.6891 91.6369 27.2883 91.9539 27.9378 92.0716V94.3619H29.0603V92.0716C30.8119 91.7567 31.9803 90.0559 31.6711 88.2733C31.3619 86.4897 29.6916 85.2998 27.941 85.6147C26.1905 85.9296 25.021 87.6305 25.3302 89.413C25.4447 90.0755 25.7572 90.6857 26.2248 91.1618L26.2237 91.1607ZM42.6258 99.8502V110.724H43.4337C44.3721 110.721 45.1318 109.947 45.1339 108.992V101.583C45.1307 100.627 44.371 99.8535 43.4337 99.8502H42.6258ZM14.3712 110.724V99.8502H13.5634C12.625 99.8546 11.8663 100.627 11.8631 101.583V108.992C11.8663 109.947 12.626 110.72 13.5634 110.724H14.3712ZM38.166 95.5049H18.831C16.9906 95.5104 15.5001 97.0293 15.4947 98.9033V111.671C15.5011 113.545 16.9917 115.063 18.831 115.07H25.1355V115.072C25.3356 115.072 25.5207 115.181 25.6202 115.357L26.229 116.43C26.2355 116.44 26.2408 116.449 26.2462 116.46L28.4996 120.434L31.3522 115.403C31.4432 115.199 31.6433 115.07 31.8626 115.07H38.1671C40.0075 115.063 41.498 113.545 41.5045 111.671V98.9033C41.4991 97.0293 40.0086 95.5115 38.1671 95.5049H38.166ZM24.1746 109.011C25.4201 111.443 28.3658 112.386 30.7541 111.118C31.639 110.648 32.3602 109.913 32.8224 109.011C32.9658 108.733 32.8599 108.389 32.5859 108.243C32.312 108.097 31.975 108.205 31.8316 108.484C30.8707 110.358 28.6002 111.085 26.7587 110.107C26.0771 109.745 25.5207 109.178 25.1654 108.484C25.0242 108.205 24.6872 108.096 24.4122 108.24C24.1382 108.384 24.0312 108.727 24.1725 109.007C24.1725 109.008 24.1735 109.01 24.1746 109.011ZM35.3412 100.567C33.8881 100.567 32.7101 101.768 32.7101 103.248C32.7101 104.727 33.8892 105.927 35.3423 105.927C36.7954 105.927 37.9734 104.726 37.9734 103.246C37.9734 102.536 37.6963 101.854 37.202 101.352C36.7087 100.848 36.0389 100.566 35.3412 100.567ZM36.4091 102.16C35.8195 101.56 34.864 101.559 34.2733 102.16C33.6838 102.76 33.6827 103.733 34.2733 104.335C34.8629 104.935 35.8184 104.936 36.4091 104.335C36.6926 104.046 36.8521 103.655 36.8521 103.248C36.8521 102.84 36.6937 102.449 36.4102 102.16H36.4091ZM21.6558 100.567C20.2017 100.567 19.0236 101.767 19.0236 103.248C19.0236 104.728 20.2017 105.928 21.6558 105.928C23.11 105.928 24.288 104.728 24.288 103.248C24.288 102.536 24.0109 101.854 23.5166 101.352C23.0233 100.848 22.3545 100.566 21.6569 100.567H21.6558ZM22.7226 102.16C22.133 101.56 21.1775 101.559 20.5869 102.16C19.9973 102.76 19.9962 103.733 20.5869 104.335C21.1765 104.935 22.132 104.936 22.7226 104.335C23.0062 104.046 23.1656 103.655 23.1656 103.248C23.1656 102.84 23.0072 102.449 22.7237 102.161L22.7226 102.16Z" stroke="#686868" stroke-width="1.4959" stroke-miterlimit="10"/>
</g>
<g clip-path="url(#clip2_4002_2)">
<path fill-rule="evenodd" clip-rule="evenodd" d="M106.499 0.106934C121.626 0.106934 133.891 12.3696 133.891 27.498C133.891 42.6265 121.626 54.8945 106.499 54.8945C91.3707 54.8945 79.1063 42.6276 79.1063 27.498C79.1063 12.3685 91.3707 0.106934 106.499 0.106934ZM104.224 15.8721C104.689 16.3398 105.288 16.6512 105.938 16.7668V19.0162H107.06V16.7668C108.812 16.4575 109.98 14.787 109.671 13.0363C109.362 11.2845 107.692 10.1159 105.941 10.4252C104.191 10.7344 103.021 12.4049 103.33 14.1556C103.445 14.8063 103.757 15.4055 104.225 15.8732L104.224 15.8721ZM120.626 24.4064V35.0864H121.434C122.372 35.0831 123.132 34.3234 123.134 33.3848V26.1079C123.131 25.1694 122.371 24.4096 121.434 24.4064H120.626ZM92.3712 35.0864V24.4064H91.5634C90.625 24.4107 89.8663 25.1694 89.8631 26.1079V33.3848C89.8663 34.3234 90.626 35.0821 91.5634 35.0864H92.3712ZM116.166 20.1387H96.831C94.9906 20.1441 93.5001 21.6359 93.4947 23.4765V36.0163C93.5011 37.8569 94.9917 39.3476 96.831 39.354H103.135V39.3562C103.336 39.3562 103.521 39.4632 103.62 39.6366L104.229 40.6906C104.235 40.7003 104.241 40.7088 104.246 40.7195L106.5 44.6223L109.352 39.6815C109.443 39.4814 109.643 39.354 109.863 39.354H116.167C118.008 39.3476 119.498 37.8569 119.504 36.0163V23.4765C119.499 21.6359 118.009 20.1452 116.167 20.1387H116.166ZM102.175 33.4041C103.42 35.7926 106.366 36.7183 108.754 35.4727C109.639 35.0115 110.36 34.2891 110.822 33.4041C110.966 33.1302 110.86 32.7931 110.586 32.6497C110.312 32.5063 109.975 32.6122 109.832 32.8862C108.871 34.7268 106.6 35.4406 104.759 34.4796C104.077 34.1243 103.521 33.5678 103.165 32.8862C103.024 32.6122 102.687 32.5052 102.412 32.6465C102.138 32.7877 102.031 33.1248 102.172 33.3998C102.172 33.4009 102.174 33.403 102.175 33.4041ZM113.341 25.1106C111.888 25.1106 110.71 26.2899 110.71 27.7431C110.71 29.1963 111.889 30.3746 113.342 30.3746C114.795 30.3746 115.973 29.1953 115.973 27.742C115.973 27.0443 115.696 26.3744 115.202 25.8811C114.709 25.3867 114.039 25.1095 113.341 25.1106ZM114.409 26.6751C113.82 26.0855 112.864 26.0844 112.273 26.6751C111.684 27.2648 111.683 28.2204 112.273 28.8111C112.863 29.4007 113.818 29.4018 114.409 28.8111C114.693 28.5275 114.852 28.1433 114.852 27.7431C114.852 27.3429 114.694 26.9587 114.41 26.6751H114.409ZM99.6558 25.1106C98.2017 25.1106 97.0236 26.2888 97.0236 27.7431C97.0236 29.1974 98.2017 30.3756 99.6558 30.3756C101.11 30.3756 102.288 29.1974 102.288 27.7431C102.288 27.0443 102.011 26.3744 101.517 25.8811C101.023 25.3867 100.355 25.1095 99.6569 25.1106H99.6558ZM100.723 26.6751C100.133 26.0855 99.1775 26.0844 98.5869 26.6751C97.9973 27.2648 97.9962 28.2204 98.5869 28.8111C99.1765 29.4007 100.132 29.4018 100.723 28.8111C101.006 28.5275 101.166 28.1433 101.166 27.7431C101.166 27.3429 101.007 26.9587 100.724 26.6762L100.723 26.6751Z" stroke="#686868" stroke-width="1.4959" stroke-miterlimit="10"/>
</g>
<g clip-path="url(#clip3_4002_2)">
<path fill-rule="evenodd" clip-rule="evenodd" d="M106.499 75.1089C121.626 75.1089 133.891 87.5945 133.891 102.998C133.891 118.402 121.626 130.893 106.499 130.893C91.3707 130.893 79.1063 118.403 79.1063 102.998C79.1063 87.5934 91.3707 75.1089 106.499 75.1089ZM104.224 91.1607C104.689 91.6369 105.288 91.9539 105.938 92.0716V94.3619H107.06V92.0716C108.812 91.7567 109.98 90.0559 109.671 88.2733C109.362 86.4897 107.692 85.2998 105.941 85.6147C104.191 85.9296 103.021 87.6305 103.33 89.413C103.445 90.0755 103.757 90.6857 104.225 91.1618L104.224 91.1607ZM120.626 99.8502V110.724H121.434C122.372 110.721 123.132 109.947 123.134 108.992V101.583C123.131 100.627 122.371 99.8535 121.434 99.8502H120.626ZM92.3712 110.724V99.8502H91.5634C90.625 99.8546 89.8663 100.627 89.8631 101.583V108.992C89.8663 109.947 90.626 110.72 91.5634 110.724H92.3712ZM116.166 95.5049H96.831C94.9906 95.5104 93.5001 97.0293 93.4947 98.9033V111.671C93.5011 113.545 94.9917 115.063 96.831 115.07H103.135V115.072C103.336 115.072 103.521 115.181 103.62 115.357L104.229 116.43C104.235 116.44 104.241 116.449 104.246 116.46L106.5 120.434L109.352 115.403C109.443 115.199 109.643 115.07 109.863 115.07H116.167C118.008 115.063 119.498 113.545 119.504 111.671V98.9033C119.499 97.0293 118.009 95.5115 116.167 95.5049H116.166ZM102.175 109.011C103.42 111.443 106.366 112.386 108.754 111.118C109.639 110.648 110.36 109.913 110.822 109.011C110.966 108.733 110.86 108.389 110.586 108.243C110.312 108.097 109.975 108.205 109.832 108.484C108.871 110.358 106.6 111.085 104.759 110.107C104.077 109.745 103.521 109.178 103.165 108.484C103.024 108.205 102.687 108.096 102.412 108.24C102.138 108.384 102.031 108.727 102.172 109.007C102.172 109.008 102.174 109.01 102.175 109.011ZM113.341 100.567C111.888 100.567 110.71 101.768 110.71 103.248C110.71 104.727 111.889 105.927 113.342 105.927C114.795 105.927 115.973 104.726 115.973 103.246C115.973 102.536 115.696 101.854 115.202 101.352C114.709 100.848 114.039 100.566 113.341 100.567ZM114.409 102.16C113.82 101.56 112.864 101.559 112.273 102.16C111.684 102.76 111.683 103.733 112.273 104.335C112.863 104.935 113.818 104.936 114.409 104.335C114.693 104.046 114.852 103.655 114.852 103.248C114.852 102.84 114.694 102.449 114.41 102.16H114.409ZM99.6558 100.567C98.2017 100.567 97.0236 101.767 97.0236 103.248C97.0236 104.728 98.2017 105.928 99.6558 105.928C101.11 105.928 102.288 104.728 102.288 103.248C102.288 102.536 102.011 101.854 101.517 101.352C101.023 100.848 100.355 100.566 99.6569 100.567H99.6558ZM100.723 102.16C100.133 101.56 99.1775 101.559 98.5869 102.16C97.9973 102.76 97.9962 103.733 98.5869 104.335C99.1765 104.935 100.132 104.936 100.723 104.335C101.006 104.046 101.166 103.655 101.166 103.248C101.166 102.84 101.007 102.449 100.724 102.161L100.723 102.16Z" stroke="#F1793F" stroke-width="1.4959" stroke-miterlimit="10"/>
</g>
<g clip-path="url(#clip4_4002_2)">
<path fill-rule="evenodd" clip-rule="evenodd" d="M183 0.106934C198.403 0.106934 210.89 12.3696 210.89 27.498C210.89 42.6265 198.403 54.8945 183 54.8945C167.597 54.8945 155.11 42.6276 155.11 27.498C155.11 12.3685 167.597 0.106934 183 0.106934ZM180.684 15.8721C181.158 16.3398 181.768 16.6512 182.429 16.7668V19.0162H183.572V16.7668C185.355 16.4575 186.545 14.787 186.23 13.0363C185.915 11.2845 184.215 10.1159 182.432 10.4252C180.65 10.7344 179.459 12.4049 179.774 14.1556C179.891 14.8063 180.209 15.4055 180.685 15.8732L180.684 15.8721ZM197.384 24.4064V35.0864H198.207C199.162 35.0831 199.936 34.3234 199.938 33.3848V26.1079C199.934 25.1694 199.161 24.4096 198.207 24.4064H197.384ZM168.616 35.0864V24.4064H167.793C166.838 24.4107 166.065 25.1694 166.062 26.1079V33.3848C166.065 34.3234 166.839 35.0821 167.793 35.0864H168.616ZM192.843 20.1387H173.157C171.283 20.1441 169.765 21.6359 169.76 23.4765V36.0163C169.766 37.8569 171.284 39.3476 173.157 39.354H179.576V39.3562C179.779 39.3562 179.968 39.4632 180.069 39.6366L180.689 40.6906C180.696 40.7003 180.701 40.7088 180.707 40.7195L183.001 44.6223L185.905 39.6815C185.998 39.4814 186.202 39.354 186.425 39.354H192.844C194.718 39.3476 196.236 37.8569 196.242 36.0163V23.4765C196.237 21.6359 194.719 20.1452 192.844 20.1387H192.843ZM178.597 33.4041C179.865 35.7926 182.865 36.7183 185.296 35.4727C186.197 35.0115 186.932 34.2891 187.402 33.4041C187.548 33.1302 187.441 32.7931 187.162 32.6497C186.883 32.5063 186.54 32.6122 186.394 32.8862C185.415 34.7268 183.103 35.4406 181.228 34.4796C180.534 34.1243 179.968 33.5678 179.606 32.8862C179.462 32.6122 179.119 32.5052 178.839 32.6465C178.56 32.7877 178.451 33.1248 178.595 33.3998C178.595 33.4009 178.596 33.403 178.597 33.4041ZM189.967 25.1106C188.487 25.1106 187.288 26.2899 187.288 27.7431C187.288 29.1963 188.489 30.3746 189.968 30.3746C191.448 30.3746 192.647 29.1953 192.647 27.742C192.647 27.0443 192.365 26.3744 191.862 25.8811C191.359 25.3867 190.677 25.1095 189.967 25.1106ZM191.054 26.6751C190.454 26.0855 189.481 26.0844 188.88 26.6751C188.279 27.2648 188.278 28.2204 188.88 28.8111C189.48 29.4007 190.453 29.4018 191.054 28.8111C191.343 28.5275 191.505 28.1433 191.505 27.7431C191.505 27.3429 191.344 26.9587 191.055 26.6751H191.054ZM176.033 25.1106C174.552 25.1106 173.353 26.2888 173.353 27.7431C173.353 29.1974 174.552 30.3756 176.033 30.3756C177.513 30.3756 178.713 29.1974 178.713 27.7431C178.713 27.0443 178.431 26.3744 177.927 25.8811C177.425 25.3867 176.744 25.1095 176.034 25.1106H176.033ZM177.119 26.6751C176.519 26.0855 175.546 26.0844 174.944 26.6751C174.344 27.2648 174.343 28.2204 174.944 28.8111C175.545 29.4007 176.518 29.4018 177.119 28.8111C177.408 28.5275 177.57 28.1433 177.57 27.7431C177.57 27.3429 177.409 26.9587 177.12 26.6762L177.119 26.6751Z" stroke="#686868" stroke-width="1.4959" stroke-miterlimit="10"/>
</g>
<g clip-path="url(#clip5_4002_2)">
<path fill-rule="evenodd" clip-rule="evenodd" d="M183 75.1089C198.403 75.1089 210.89 87.5945 210.89 102.998C210.89 118.402 198.403 130.893 183 130.893C167.597 130.893 155.11 118.403 155.11 102.998C155.11 87.5934 167.597 75.1089 183 75.1089ZM180.684 91.1607C181.158 91.6369 181.768 91.9539 182.429 92.0716V94.3619H183.572V92.0716C185.355 91.7567 186.545 90.0559 186.23 88.2733C185.915 86.4897 184.215 85.2998 182.432 85.6147C180.65 85.9296 179.459 87.6305 179.774 89.413C179.891 90.0755 180.209 90.6857 180.685 91.1618L180.684 91.1607ZM197.384 99.8502V110.724H198.207C199.162 110.721 199.936 109.947 199.938 108.992V101.583C199.934 100.627 199.161 99.8535 198.207 99.8502H197.384ZM168.616 110.724V99.8502H167.793C166.838 99.8546 166.065 100.627 166.062 101.583V108.992C166.065 109.947 166.839 110.72 167.793 110.724H168.616ZM192.843 95.5049H173.157C171.283 95.5104 169.765 97.0293 169.76 98.9033V111.671C169.766 113.545 171.284 115.063 173.157 115.07H179.576V115.072C179.779 115.072 179.968 115.181 180.069 115.357L180.689 116.43C180.696 116.44 180.701 116.449 180.707 116.46L183.001 120.434L185.905 115.403C185.998 115.199 186.202 115.07 186.425 115.07H192.844C194.718 115.063 196.236 113.545 196.242 111.671V98.9033C196.237 97.0293 194.719 95.5115 192.844 95.5049H192.843ZM178.597 109.011C179.865 111.443 182.865 112.386 185.296 111.118C186.197 110.648 186.932 109.913 187.402 109.011C187.548 108.733 187.441 108.389 187.162 108.243C186.883 108.097 186.54 108.205 186.394 108.484C185.415 110.358 183.103 111.085 181.228 110.107C180.534 109.745 179.968 109.178 179.606 108.484C179.462 108.205 179.119 108.096 178.839 108.24C178.56 108.384 178.451 108.727 178.595 109.007C178.595 109.008 178.596 109.01 178.597 109.011ZM189.967 100.567C188.487 100.567 187.288 101.768 187.288 103.248C187.288 104.727 188.489 105.927 189.968 105.927C191.448 105.927 192.647 104.726 192.647 103.246C192.647 102.536 192.365 101.854 191.862 101.352C191.359 100.848 190.677 100.566 189.967 100.567ZM191.054 102.16C190.454 101.56 189.481 101.559 188.88 102.16C188.279 102.76 188.278 103.733 188.88 104.335C189.48 104.935 190.453 104.936 191.054 104.335C191.343 104.046 191.505 103.655 191.505 103.248C191.505 102.84 191.344 102.449 191.055 102.16H191.054ZM176.033 100.567C174.552 100.567 173.353 101.767 173.353 103.248C173.353 104.728 174.552 105.928 176.033 105.928C177.513 105.928 178.713 104.728 178.713 103.248C178.713 102.536 178.431 101.854 177.927 101.352C177.425 100.848 176.744 100.566 176.034 100.567H176.033ZM177.119 102.16C176.519 101.56 175.546 101.559 174.944 102.16C174.344 102.76 174.343 103.733 174.944 104.335C175.545 104.935 176.518 104.936 177.119 104.335C177.408 104.046 177.57 103.655 177.57 103.248C177.57 102.84 177.409 102.449 177.12 102.161L177.119 102.16Z" stroke="#686868" stroke-width="1.4959" stroke-miterlimit="10"/>
</g>
<g clip-path="url(#clip6_4002_2)">
<path fill-rule="evenodd" clip-rule="evenodd" d="M184.5 150.107C199.628 150.107 211.892 162.37 211.892 177.498C211.892 192.627 199.628 204.895 184.5 204.895C169.372 204.895 157.108 192.628 157.108 177.498C157.108 162.369 169.372 150.107 184.5 150.107ZM182.225 165.872C182.69 166.34 183.29 166.651 183.939 166.767V169.016H185.062V166.767C186.813 166.457 187.982 164.787 187.672 163.036C187.363 161.284 185.693 160.116 183.942 160.425C182.192 160.734 181.022 162.405 181.332 164.156C181.446 164.806 181.759 165.406 182.226 165.873L182.225 165.872ZM198.627 174.406V185.086H199.435C200.373 185.083 201.133 184.323 201.135 183.385V176.108C201.132 175.169 200.372 174.41 199.435 174.406H198.627ZM170.373 185.086V174.406H169.565C168.626 174.411 167.868 175.169 167.864 176.108V183.385C167.868 184.323 168.627 185.082 169.565 185.086H170.373ZM194.167 170.139H174.832C172.992 170.144 171.501 171.636 171.496 173.476V186.016C171.502 187.857 172.993 189.348 174.832 189.354H181.137V189.356C181.337 189.356 181.522 189.463 181.622 189.637L182.23 190.691C182.237 190.7 182.242 190.709 182.247 190.72L184.501 194.622L187.354 189.682C187.445 189.481 187.645 189.354 187.864 189.354H194.168C196.009 189.348 197.499 187.857 197.506 186.016V173.476C197.5 171.636 196.01 170.145 194.168 170.139H194.167ZM180.176 183.404C181.421 185.793 184.367 186.718 186.755 185.473C187.64 185.011 188.362 184.289 188.824 183.404C188.967 183.13 188.861 182.793 188.587 182.65C188.313 182.506 187.976 182.612 187.833 182.886C186.872 184.727 184.602 185.441 182.76 184.48C182.078 184.124 181.522 183.568 181.167 182.886C181.026 182.612 180.688 182.505 180.414 182.646C180.14 182.788 180.033 183.125 180.174 183.4C180.174 183.401 180.175 183.403 180.176 183.404ZM191.343 175.111C189.889 175.111 188.711 176.29 188.711 177.743C188.711 179.196 189.891 180.375 191.344 180.375C192.797 180.375 193.975 179.195 193.975 177.742C193.975 177.044 193.698 176.374 193.203 175.881C192.71 175.387 192.04 175.11 191.343 175.111ZM192.41 176.675C191.821 176.085 190.865 176.084 190.275 176.675C189.685 177.265 189.684 178.22 190.275 178.811C190.864 179.401 191.82 179.402 192.41 178.811C192.694 178.528 192.853 178.143 192.853 177.743C192.853 177.343 192.695 176.959 192.411 176.675H192.41ZM177.657 175.111C176.203 175.111 175.025 176.289 175.025 177.743C175.025 179.197 176.203 180.376 177.657 180.376C179.111 180.376 180.289 179.197 180.289 177.743C180.289 177.044 180.012 176.374 179.518 175.881C179.025 175.387 178.356 175.11 177.658 175.111H177.657ZM178.724 176.675C178.134 176.085 177.179 176.084 176.588 176.675C175.999 177.265 175.998 178.22 176.588 178.811C177.178 179.401 178.133 179.402 178.724 178.811C179.008 178.528 179.167 178.143 179.167 177.743C179.167 177.343 179.009 176.959 178.725 176.676L178.724 176.675Z" stroke="#686868" stroke-width="1.4959" stroke-miterlimit="10"/>
</g>
<g clip-path="url(#clip7_4002_2)">
<path fill-rule="evenodd" clip-rule="evenodd" d="M260.501 0.106934C275.629 0.106934 287.894 12.3696 287.894 27.498C287.894 42.6265 275.629 54.8945 260.501 54.8945C245.374 54.8945 233.109 42.6276 233.109 27.498C233.109 12.3685 245.374 0.106934 260.501 0.106934ZM258.226 15.8721C258.692 16.3398 259.291 16.6512 259.941 16.7668V19.0162H261.063V16.7668C262.815 16.4575 263.983 14.787 263.674 13.0363C263.365 11.2845 261.694 10.1159 259.944 10.4252C258.193 10.7344 257.024 12.4049 257.333 14.1556C257.448 14.8063 257.76 15.4055 258.228 15.8732L258.226 15.8721ZM274.629 24.4064V35.0864H275.436C276.375 35.0831 277.135 34.3234 277.137 33.3848V26.1079C277.134 25.1694 276.374 24.4096 275.436 24.4064H274.629ZM246.374 35.0864V24.4064H245.566C244.628 24.4107 243.869 25.1694 243.866 26.1079V33.3848C243.869 34.3234 244.629 35.0821 245.566 35.0864H246.374ZM270.169 20.1387H250.834C248.993 20.1441 247.503 21.6359 247.498 23.4765V36.0163C247.504 37.8569 248.994 39.3476 250.834 39.354H257.138V39.3562C257.338 39.3562 257.523 39.4632 257.623 39.6366L258.232 40.6906C258.238 40.7003 258.244 40.7088 258.249 40.7195L260.502 44.6223L263.355 39.6815C263.446 39.4814 263.646 39.354 263.865 39.354H270.17C272.01 39.3476 273.501 37.8569 273.507 36.0163V23.4765C273.502 21.6359 272.011 20.1452 270.17 20.1387H270.169ZM256.177 33.4041C257.423 35.7926 260.369 36.7183 262.757 35.4727C263.642 35.0115 264.363 34.2891 264.825 33.4041C264.969 33.1302 264.863 32.7931 264.589 32.6497C264.315 32.5063 263.978 32.6122 263.834 32.8862C262.874 34.7268 260.603 35.4406 258.761 34.4796C258.08 34.1243 257.523 33.5678 257.168 32.8862C257.027 32.6122 256.69 32.5052 256.415 32.6465C256.141 32.7877 256.034 33.1248 256.175 33.3998C256.175 33.4009 256.176 33.403 256.177 33.4041ZM267.344 25.1106C265.891 25.1106 264.713 26.2899 264.713 27.7431C264.713 29.1963 265.892 30.3746 267.345 30.3746C268.798 30.3746 269.976 29.1953 269.976 27.742C269.976 27.0443 269.699 26.3744 269.205 25.8811C268.711 25.3867 268.042 25.1095 267.344 25.1106ZM268.412 26.6751C267.822 26.0855 266.867 26.0844 266.276 26.6751C265.687 27.2648 265.686 28.2204 266.276 28.8111C266.866 29.4007 267.821 29.4018 268.412 28.8111C268.695 28.5275 268.855 28.1433 268.855 27.7431C268.855 27.3429 268.697 26.9587 268.413 26.6751H268.412ZM253.659 25.1106C252.204 25.1106 251.026 26.2888 251.026 27.7431C251.026 29.1974 252.204 30.3756 253.659 30.3756C255.113 30.3756 256.291 29.1974 256.291 27.7431C256.291 27.0443 256.014 26.3744 255.519 25.8811C255.026 25.3867 254.357 25.1095 253.66 25.1106H253.659ZM254.725 26.6751C254.136 26.0855 253.18 26.0844 252.59 26.6751C252 27.2648 251.999 28.2204 252.59 28.8111C253.179 29.4007 254.135 29.4018 254.725 28.8111C255.009 28.5275 255.168 28.1433 255.168 27.7431C255.168 27.3429 255.01 26.9587 254.726 26.6762L254.725 26.6751Z" stroke="#F1793F" stroke-width="1.4959" stroke-miterlimit="10"/>
</g>
<g clip-path="url(#clip8_4002_2)">
<path fill-rule="evenodd" clip-rule="evenodd" d="M260.501 75.1089C275.629 75.1089 287.894 87.5945 287.894 102.998C287.894 118.402 275.629 130.893 260.501 130.893C245.374 130.893 233.109 118.403 233.109 102.998C233.109 87.5934 245.374 75.1089 260.501 75.1089ZM258.226 91.1607C258.692 91.6369 259.291 91.9539 259.941 92.0716V94.3619H261.063V92.0716C262.815 91.7567 263.983 90.0559 263.674 88.2733C263.365 86.4897 261.694 85.2998 259.944 85.6147C258.193 85.9296 257.024 87.6305 257.333 89.413C257.448 90.0755 257.76 90.6857 258.228 91.1618L258.226 91.1607ZM274.629 99.8502V110.724H275.436C276.375 110.721 277.135 109.947 277.137 108.992V101.583C277.134 100.627 276.374 99.8535 275.436 99.8502H274.629ZM246.374 110.724V99.8502H245.566C244.628 99.8546 243.869 100.627 243.866 101.583V108.992C243.869 109.947 244.629 110.72 245.566 110.724H246.374ZM270.169 95.5049H250.834C248.993 95.5104 247.503 97.0293 247.498 98.9033V111.671C247.504 113.545 248.994 115.063 250.834 115.07H257.138V115.072C257.338 115.072 257.523 115.181 257.623 115.357L258.232 116.43C258.238 116.44 258.244 116.449 258.249 116.46L260.502 120.434L263.355 115.403C263.446 115.199 263.646 115.07 263.865 115.07H270.17C272.01 115.063 273.501 113.545 273.507 111.671V98.9033C273.502 97.0293 272.011 95.5115 270.17 95.5049H270.169ZM256.177 109.011C257.423 111.443 260.369 112.386 262.757 111.118C263.642 110.648 264.363 109.913 264.825 109.011C264.969 108.733 264.863 108.389 264.589 108.243C264.315 108.097 263.978 108.205 263.834 108.484C262.874 110.358 260.603 111.085 258.761 110.107C258.08 109.745 257.523 109.178 257.168 108.484C257.027 108.205 256.69 108.096 256.415 108.24C256.141 108.384 256.034 108.727 256.175 109.007C256.175 109.008 256.176 109.01 256.177 109.011ZM267.344 100.567C265.891 100.567 264.713 101.768 264.713 103.248C264.713 104.727 265.892 105.927 267.345 105.927C268.798 105.927 269.976 104.726 269.976 103.246C269.976 102.536 269.699 101.854 269.205 101.352C268.711 100.848 268.042 100.566 267.344 100.567ZM268.412 102.16C267.822 101.56 266.867 101.559 266.276 102.16C265.687 102.76 265.686 103.733 266.276 104.335C266.866 104.935 267.821 104.936 268.412 104.335C268.695 104.046 268.855 103.655 268.855 103.248C268.855 102.84 268.697 102.449 268.413 102.16H268.412ZM253.659 100.567C252.204 100.567 251.026 101.767 251.026 103.248C251.026 104.728 252.204 105.928 253.659 105.928C255.113 105.928 256.291 104.728 256.291 103.248C256.291 102.536 256.014 101.854 255.519 101.352C255.026 100.848 254.357 100.566 253.66 100.567H253.659ZM254.725 102.16C254.136 101.56 253.18 101.559 252.59 102.16C252 102.76 251.999 103.733 252.59 104.335C253.179 104.935 254.135 104.936 254.725 104.335C255.009 104.046 255.168 103.655 255.168 103.248C255.168 102.84 255.01 102.449 254.726 102.161L254.725 102.16Z" stroke="#686868" stroke-width="1.4959" stroke-miterlimit="10"/>
</g>
<g clip-path="url(#clip9_4002_2)">
<path fill-rule="evenodd" clip-rule="evenodd" d="M262.5 150.107C277.628 150.107 289.892 162.37 289.892 177.498C289.892 192.627 277.628 204.895 262.5 204.895C247.372 204.895 235.108 192.628 235.108 177.498C235.108 162.369 247.372 150.107 262.5 150.107ZM260.225 165.872C260.69 166.34 261.29 166.651 261.939 166.767V169.016H263.062V166.767C264.813 166.457 265.982 164.787 265.672 163.036C265.363 161.284 263.693 160.116 261.942 160.425C260.192 160.734 259.022 162.405 259.332 164.156C259.446 164.806 259.759 165.406 260.226 165.873L260.225 165.872ZM276.627 174.406V185.086H277.435C278.373 185.083 279.133 184.323 279.135 183.385V176.108C279.132 175.169 278.372 174.41 277.435 174.406H276.627ZM248.373 185.086V174.406H247.565C246.626 174.411 245.868 175.169 245.864 176.108V183.385C245.868 184.323 246.627 185.082 247.565 185.086H248.373ZM272.167 170.139H252.832C250.992 170.144 249.501 171.636 249.496 173.476V186.016C249.502 187.857 250.993 189.348 252.832 189.354H259.137V189.356C259.337 189.356 259.522 189.463 259.622 189.637L260.23 190.691C260.237 190.7 260.242 190.709 260.247 190.72L262.501 194.622L265.354 189.682C265.445 189.481 265.645 189.354 265.864 189.354H272.168C274.009 189.348 275.499 187.857 275.506 186.016V173.476C275.5 171.636 274.01 170.145 272.168 170.139H272.167ZM258.176 183.404C259.421 185.793 262.367 186.718 264.755 185.473C265.64 185.011 266.362 184.289 266.824 183.404C266.967 183.13 266.861 182.793 266.587 182.65C266.313 182.506 265.976 182.612 265.833 182.886C264.872 184.727 262.602 185.441 260.76 184.48C260.078 184.124 259.522 183.568 259.167 182.886C259.026 182.612 258.688 182.505 258.414 182.646C258.14 182.788 258.033 183.125 258.174 183.4C258.174 183.401 258.175 183.403 258.176 183.404ZM269.343 175.111C267.889 175.111 266.711 176.29 266.711 177.743C266.711 179.196 267.891 180.375 269.344 180.375C270.797 180.375 271.975 179.195 271.975 177.742C271.975 177.044 271.698 176.374 271.203 175.881C270.71 175.387 270.04 175.11 269.343 175.111ZM270.41 176.675C269.821 176.085 268.865 176.084 268.275 176.675C267.685 177.265 267.684 178.22 268.275 178.811C268.864 179.401 269.82 179.402 270.41 178.811C270.694 178.528 270.853 178.143 270.853 177.743C270.853 177.343 270.695 176.959 270.411 176.675H270.41ZM255.657 175.111C254.203 175.111 253.025 176.289 253.025 177.743C253.025 179.197 254.203 180.376 255.657 180.376C257.111 180.376 258.289 179.197 258.289 177.743C258.289 177.044 258.012 176.374 257.518 175.881C257.025 175.387 256.356 175.11 255.658 175.111H255.657ZM256.724 176.675C256.134 176.085 255.179 176.084 254.588 176.675C253.999 177.265 253.998 178.22 254.588 178.811C255.178 179.401 256.133 179.402 256.724 178.811C257.008 178.528 257.167 178.143 257.167 177.743C257.167 177.343 257.009 176.959 256.725 176.676L256.724 176.675Z" stroke="#686868" stroke-width="1.4959" stroke-miterlimit="10"/>
</g>
<defs>
<clipPath id="clip0_4002_2">
<rect width="55" height="55" fill="white"/>
</clipPath>
<clipPath id="clip1_4002_2">
<rect width="55" height="56" fill="white" transform="translate(1 75)"/>
</clipPath>
<clipPath id="clip2_4002_2">
<rect width="55" height="55" fill="white" transform="translate(79)"/>
</clipPath>
<clipPath id="clip3_4002_2">
<rect width="55" height="56" fill="white" transform="translate(79 75)"/>
</clipPath>
<clipPath id="clip4_4002_2">
<rect width="56" height="55" fill="white" transform="translate(155)"/>
</clipPath>
<clipPath id="clip5_4002_2">
<rect width="56" height="56" fill="white" transform="translate(155 75)"/>
</clipPath>
<clipPath id="clip6_4002_2">
<rect width="55" height="55" fill="white" transform="translate(157 150)"/>
</clipPath>
<clipPath id="clip7_4002_2">
<rect width="55" height="55" fill="white" transform="translate(233)"/>
</clipPath>
<clipPath id="clip8_4002_2">
<rect width="55" height="56" fill="white" transform="translate(233 75)"/>
</clipPath>
<clipPath id="clip9_4002_2">
<rect width="55" height="55" fill="white" transform="translate(235 150)"/>
</clipPath>
</defs>
</svg>
