<svg width="60" height="60" viewBox="0 0 60 60" fill="none" xmlns="http://www.w3.org/2000/svg">
<g clip-path="url(#clip0_536_11750)">
<path d="M19.613 36.9231C19.8578 37.0252 20.1332 37.0259 20.3784 36.9251C20.6237 36.8242 20.8189 36.6299 20.921 36.3851L22.331 33.0002H27.665L29.0751 36.3851C29.2876 36.8949 29.8733 37.1358 30.383 36.9232C30.8928 36.7106 31.1337 36.1249 30.9211 35.6152L25.9211 23.6152C25.7658 23.2427 25.4017 23 24.9981 23C24.5945 23 24.2305 23.2427 24.0752 23.6152L19.0752 35.6152C18.973 35.86 18.9723 36.1354 19.0732 36.3806C19.1741 36.6259 19.3682 36.821 19.613 36.9231ZM24.998 26.6001L26.831 31.0001H23.165L24.998 26.6001Z" fill="#F1793F"/>
<path fill-rule="evenodd" clip-rule="evenodd" d="M32.9981 35C32.4457 35 31.998 35.4477 31.998 36C31.998 36.5524 32.4457 37.0001 32.9981 37.0001H38.9981C39.5504 37.0001 39.9981 36.5524 39.9981 36C39.9981 35.4477 39.5504 35 38.9981 35H36.998V25H38.9981C39.5504 25 39.9981 24.5523 39.9981 24C39.9981 23.4477 39.5504 23 38.9981 23H32.9981C32.4457 23 31.998 23.4477 31.998 24C31.998 24.5523 32.4457 25 32.9981 25H34.9981V35H32.9981Z" fill="#F1793F"/>
<path d="M0.997455 44C0.997455 46.2092 2.78835 48 4.99743 48C5.49847 47.9981 5.99459 47.9011 6.45942 47.714C8.8234 49.524 12.1594 50.468 16.2594 50.468C16.8774 50.468 17.5195 50.439 18.1704 50.397C21.0744 56.331 25.2644 60 29.9974 60C34.7304 60 38.9204 56.331 41.8254 50.4C42.4774 50.442 43.1184 50.4709 43.7363 50.4709C47.8363 50.4709 51.1724 49.5269 53.5363 47.7169C54.0011 47.9028 54.4968 47.9989 54.9973 48C56.7629 47.995 58.3163 46.833 58.8198 45.1408C59.3233 43.4486 58.6579 41.6264 57.1823 40.657C57.3223 37.4369 56.0773 33.7829 53.5433 29.9999C56.0773 26.218 57.3224 22.5639 57.1823 19.3429C58.9111 18.2273 59.5084 15.9801 58.5617 14.1533C57.615 12.3265 55.4346 11.5188 53.5263 12.2879C50.8093 10.2089 46.7973 9.28793 41.8263 9.61192C38.9245 3.67303 34.7325 0 29.9975 0C25.2624 0 21.0704 3.67303 18.1655 9.61202C13.1965 9.29 9.18646 10.212 6.46542 12.288C4.55829 11.5251 2.38347 12.3339 1.43836 14.1577C0.493263 15.9815 1.08642 18.2248 2.80942 19.343C2.67143 22.5621 3.9174 26.216 6.45144 30C3.9174 33.783 2.67143 37.437 2.81247 40.6571C1.68145 41.3931 0.998734 42.6506 0.997455 44ZM2.99749 44C2.99749 42.8955 3.89289 42 4.99753 42C6.10216 42 6.99756 42.8954 6.99756 44C6.99756 45.1046 6.10216 46 4.99753 46C4.46706 46 3.95834 45.7893 3.58327 45.4143C3.2082 45.0392 2.99749 44.5305 2.99749 44ZM19.4065 11.72C22.0687 12.0388 24.6915 12.6275 27.2345 13.4771C25.4446 14.2759 23.6966 15.1657 21.9975 16.1431C20.2925 17.1272 18.6408 18.201 17.0495 19.3601C17.5738 16.74 18.3636 14.1801 19.4065 11.72ZM42.9445 19.3601C41.3537 18.2009 39.7023 17.127 37.9974 16.1431C36.3008 15.1669 34.5559 14.2771 32.7694 13.4771C35.3099 12.6279 37.9299 12.0393 40.5894 11.72C41.6318 14.1802 42.4208 16.74 42.9445 19.3601ZM40.5885 48.2801C37.9263 47.9613 35.3035 47.3726 32.7605 46.523C34.5504 45.7242 36.2984 44.8344 37.9974 43.857C39.7025 42.8729 41.3541 41.7991 42.9455 40.64C42.4212 43.2601 41.6315 45.8199 40.5885 48.2801ZM36.9975 17.876C39.2526 19.1738 41.4085 20.6368 43.4475 22.253C43.8153 24.819 43.999 27.4079 43.9974 30C43.9993 32.5922 43.8159 35.1811 43.4485 37.7471C41.4091 39.3632 39.2528 40.8262 36.9975 42.1241C34.7494 43.4244 32.4099 44.56 29.9975 45.522C27.585 44.5595 25.2455 43.4232 22.9975 42.122C20.7423 40.8242 18.5865 39.3612 16.5475 37.745C15.8155 32.6062 15.8155 27.3897 16.5475 22.251C18.5866 20.6355 20.7425 19.1733 22.9975 17.8759C25.2475 16.5746 27.589 15.4383 30.0035 14.4759C32.4139 15.4388 34.7514 16.5751 36.9975 17.876ZM45.6975 24.143C47.692 25.9087 49.5035 27.871 51.1045 30C49.5058 32.1287 47.6965 34.091 45.7046 35.8571C45.9009 33.911 45.9988 31.9561 45.9976 30C45.9982 28.044 45.8996 26.0891 45.7026 24.143H45.6975ZM14.2975 35.8571C12.3024 34.0918 10.4909 32.1295 8.89042 30C10.4892 27.8714 12.2983 25.9091 14.2904 24.143C13.897 28.0378 13.897 31.9623 14.2904 35.8571H14.2975ZM22.0034 43.857C23.7001 44.8332 25.445 45.723 27.2315 46.523C24.691 47.3722 22.071 47.9608 19.4114 48.2801C18.3688 45.8199 17.5794 43.2601 17.0554 40.64C18.6447 41.7991 20.2943 42.8729 21.9974 43.857H22.0034ZM29.9975 58.0001C26.2415 58.0001 22.8285 55.0211 20.3115 50.1891C23.6257 49.7192 26.8754 48.8723 29.9975 47.6651C33.1208 48.8729 36.3719 49.7197 39.6875 50.1891C37.1655 55.0211 33.7535 58.0001 29.9975 58.0001ZM54.9975 46C53.893 46 52.9975 45.1046 52.9975 44C52.9975 42.8954 53.8929 42 54.9975 42C56.1022 42 56.9976 42.8954 56.9976 44C56.9976 45.1046 56.1021 46 54.9975 46ZM55.2075 40.021C55.1365 40.021 55.0695 40 54.9974 40C52.7883 40 50.9975 41.7909 50.9975 44C51.0012 44.8942 51.3075 45.7609 51.8665 46.459C49.6885 47.8959 46.5094 48.579 42.7015 48.436C43.9413 45.3386 44.8201 42.1085 45.3205 38.81C47.907 36.7273 50.2477 34.3566 52.2975 31.744C53.9859 34.1954 54.9905 37.0524 55.2075 40.021ZM56.9975 16C56.9975 17.1045 56.1021 18 54.9974 18C53.8928 18 52.9974 17.1046 52.9974 16C52.9974 14.8954 53.8928 14 54.9974 14C56.1021 14 56.9975 14.8955 56.9975 16ZM51.8665 13.541C51.3076 14.2391 51.0013 15.1058 50.9975 16C50.9975 18.2092 52.7884 20 54.9974 20C55.0695 20 55.1364 19.9829 55.2075 19.979C54.9907 22.9477 53.9862 25.8048 52.2975 28.256C50.2473 25.6433 47.9063 23.2726 45.3195 21.19C44.8184 17.8913 43.9386 14.6612 42.6974 11.564C46.5086 11.42 49.6895 12.1 51.8665 13.541ZM29.9975 2.00004C33.7535 2.00004 37.1665 4.97903 39.6835 9.81102C36.371 10.2813 33.1229 11.128 30.0025 12.335C26.8792 11.1272 23.6281 10.2804 20.3125 9.81102C22.8295 4.97903 26.2415 2.00004 29.9975 2.00004ZM4.99743 14.0001C6.10196 14.0001 6.99746 14.8955 6.99746 16.0001C6.99746 17.1047 6.10206 18.0001 4.99743 18.0001C3.89279 18.0001 2.99739 17.1047 2.99739 16.0001C2.99739 14.8955 3.89289 14.0001 4.99743 14.0001ZM4.7875 19.979C4.85846 19.979 4.92548 20 4.99753 20C7.2067 20 8.9975 18.2091 8.9975 16C8.99376 15.1058 8.68749 14.239 8.12848 13.541C10.3055 12.104 13.4844 11.422 17.2935 11.564C16.0537 14.6614 15.1749 17.8915 14.6745 21.19C12.0883 23.2726 9.74754 25.6429 7.69751 28.255C6.00847 25.8043 5.00392 22.9475 4.7875 19.979ZM7.69751 31.745C9.74852 34.3569 12.0899 36.7272 14.6765 38.81C15.1774 42.109 16.0569 45.3394 17.2975 48.4369C13.4915 48.5809 10.3105 47.8959 8.13251 46.459C8.69004 45.7604 8.99484 44.8937 8.9975 44C8.9975 41.7908 7.2066 40 4.99753 40C4.92548 40 4.85856 40.018 4.7875 40.021C5.00432 37.0526 6.00876 34.1959 7.69751 31.745Z" fill="#F1793F"/>
</g>
<defs>
<clipPath id="clip0_536_11750">
<rect width="60" height="60" fill="white"/>
</clipPath>
</defs>
</svg>
