<svg width="62" height="62" viewBox="0 0 62 62" fill="none" xmlns="http://www.w3.org/2000/svg">
<path d="M30.9903 61.9903C13.9069 61.9903 0 48.0834 0 31C0 24.3467 2.07248 18.0131 5.99469 12.6769C6.31428 12.2508 6.91471 12.154 7.35051 12.4736C7.78632 12.7932 7.87348 13.3936 7.55389 13.8294C3.87379 18.8363 1.92721 24.7729 1.92721 31.0097C1.92721 47.0278 14.9625 60.0631 30.9806 60.0631C46.9987 60.0631 60.034 47.0278 60.034 31.0097C60.034 24.3177 57.7001 17.7903 53.4777 12.6188C53.1387 12.2024 53.1968 11.5923 53.6132 11.2533C54.0297 10.9144 54.6398 10.9725 54.9787 11.3889C59.4917 16.8994 61.9806 23.8722 61.9806 31.0097C61.9806 48.0931 48.0737 62 30.9903 62V61.9903Z" fill="#F1793F"/>
<path d="M16.4624 5.68479C16.1235 5.68479 15.7942 5.50078 15.6102 5.18119C15.3487 4.71634 15.523 4.12559 15.9879 3.8641C20.5493 1.33646 25.7402 0 30.9795 0C35.8992 0 40.6155 1.1234 44.9735 3.33146C45.4481 3.57357 45.6417 4.15464 45.3996 4.62918C45.1575 5.10372 44.5765 5.29741 44.1019 5.05529C40.0151 2.98282 35.5989 1.92721 30.9795 1.92721C26.0597 1.92721 21.1981 3.17651 16.9176 5.5492C16.7723 5.62668 16.6077 5.66542 16.4527 5.66542L16.4624 5.68479Z" fill="#F1793F"/>
<path d="M24.2112 30.9998H23.0297C22.1387 30.9998 21.364 30.3993 21.1509 29.5277L20.5505 27.126H17.7517C17.3352 27.126 16.9188 26.9904 16.5895 26.7386L13.3646 24.3175C12.8804 23.9592 12.5898 23.3781 12.5898 22.768V19.3784C12.5898 18.3131 13.4614 17.4415 14.5267 17.4415H18.0906L24.2112 13.0738V12.3378L22.6326 11.8148C21.8385 11.5534 21.3059 10.8173 21.3059 9.97479V5.38435L18.8363 3.73799L19.9113 2.13037L22.3808 3.77673C22.9232 4.13506 23.2428 4.73549 23.2428 5.38435V9.97479L24.8213 10.4978C25.6155 10.7592 26.1481 11.4953 26.1481 12.3378V13.0738C26.1481 13.6936 25.8479 14.2844 25.3346 14.6524L19.214 19.0201C18.8848 19.2525 18.4974 19.3784 18.0906 19.3784H14.5267V22.768L17.7517 25.1891H20.5505C21.4415 25.1891 22.2162 25.7895 22.4293 26.6611L23.0297 29.0629H24.2112V30.9998Z" fill="#F1793F"/>
<path d="M21.6155 56.1799H20.3371C19.2718 56.1799 18.4002 55.3083 18.4002 54.2431V50.6017L16.6667 47.1346C16.5311 46.8635 16.4633 46.5633 16.4633 46.2727V40.3168L9.79073 36.9756C9.13218 36.6464 8.71575 35.9781 8.71575 35.2421V31.6008C8.71575 30.8647 9.1225 30.1965 9.79073 29.8672L10.6526 29.4314V28.5598L6.53674 25.2671C6.07189 24.8991 5.81041 24.3471 5.81041 23.7563V19.776L4.15436 18.12C3.77667 17.7423 3.77667 17.1322 4.15436 16.7545C4.53206 16.3768 5.14218 16.3768 5.51987 16.7545L7.17592 18.4105C7.53425 18.7688 7.7473 19.2724 7.7473 19.776V23.7563L11.8632 27.0491C12.3281 27.4171 12.5895 27.9691 12.5895 28.5598V29.4314C12.5895 30.1675 12.1828 30.8357 11.5146 31.165L10.6526 31.6008V35.2421L17.3252 38.5833C17.9838 38.9125 18.4002 39.5808 18.4002 40.3168V46.2727L20.1337 49.7398C20.2693 50.0109 20.3371 50.3112 20.3371 50.6017V54.2431H21.6155L23.2618 50.1272C23.3199 49.9722 23.4071 49.8269 23.5136 49.6817L26.1672 46.1371L26.3221 43.7451C26.3609 43.2124 26.6127 42.7185 27.0194 42.3796L31.9585 38.283V34.8644H30.0216C29.4889 34.8644 29.0531 34.4286 29.0531 33.896C29.0531 33.3633 29.4889 32.9275 30.0216 32.9275H31.9585C33.0238 32.9275 33.8954 33.7991 33.8954 34.8644V38.283C33.8954 38.8641 33.6436 39.4064 33.1981 39.7745L28.2687 43.871L28.1137 46.263C28.0847 46.6407 27.9588 46.9991 27.7264 47.2993L25.0728 50.8438L23.4265 54.9597C23.1359 55.6957 22.429 56.1799 21.6252 56.1799H21.6155Z" fill="#F1793F"/>
<path d="M53.6502 49.207L50.1638 46.5922C49.6796 46.2338 49.389 45.6528 49.389 45.0426V40.0551L45.9414 35.7456C45.6702 35.4066 45.5152 34.9708 45.5152 34.535V30.4288C45.5152 29.9155 45.7186 29.4216 46.0866 29.0633L47.5296 27.6203C47.8008 27.3491 48.1397 27.1651 48.5174 27.0876L52.2944 26.3322V25.5865C52.2944 25.0733 52.4977 24.5794 52.8658 24.221L54.2313 22.8555V21.3157H52.5268L51.2291 21.9645C50.6867 22.2357 50.0379 22.2357 49.4956 21.9645L46.2609 20.3472H39.7142C38.6489 20.3472 37.7773 19.4756 37.7773 18.4103V16.9577C37.7773 16.3476 38.0679 15.7665 38.5521 15.4082L40.673 13.8296V12.0283C40.673 11.6506 40.7795 11.2923 40.9829 10.9824L42.4646 8.66776L41.9223 7.5831C41.6899 7.12793 41.6511 6.5856 41.8158 6.10138L42.6583 3.57373L44.4984 4.18385L43.6558 6.7115L44.1981 7.79616C44.4984 8.3966 44.4596 9.13262 44.0916 9.704L42.6002 12.0186V13.8199C42.6002 14.43 42.3097 15.0111 41.8158 15.3694L39.6949 16.948V18.4007H46.2416C46.5418 18.4007 46.842 18.4685 47.1035 18.604L50.3381 20.2213L51.6358 19.5725C51.907 19.4369 52.2072 19.3691 52.4977 19.3691H54.2022C55.2675 19.3691 56.1391 20.2407 56.1391 21.306V22.8458C56.1391 23.3591 55.9357 23.853 55.5677 24.2113L54.2022 25.5769V26.3226C54.2022 27.2426 53.5437 28.0367 52.643 28.2207L48.8661 28.9761L47.4231 30.4191V34.5253L50.8707 38.8349C51.1419 39.1739 51.2969 39.6097 51.2969 40.0455V45.033L54.7833 47.6478L53.6211 49.1973L53.6502 49.207Z" fill="#F1793F"/>
<path d="M9.68329 19.3785C9.15064 19.3785 8.71484 18.9427 8.71484 18.4101V9.69403C8.71484 9.16139 9.15064 8.72559 9.68329 8.72559C10.2159 8.72559 10.6517 9.16139 10.6517 9.69403V18.4101C10.6517 18.9427 10.2159 19.3785 9.68329 19.3785Z" fill="#F1793F"/>
<path d="M9.68599 10.663C7.01307 10.663 4.84375 8.49367 4.84375 5.82075C4.84375 3.14784 7.01307 0.978516 9.68599 0.978516C12.3589 0.978516 14.5282 3.14784 14.5282 5.82075C14.5282 8.49367 12.3589 10.663 9.68599 10.663ZM9.68599 2.91541C8.08805 2.91541 6.78064 4.22281 6.78064 5.82075C6.78064 7.41869 8.08805 8.72609 9.68599 8.72609C11.2839 8.72609 12.5913 7.41869 12.5913 5.82075C12.5913 4.22281 11.2839 2.91541 9.68599 2.91541Z" fill="#F1793F"/>
<path d="M51.3239 18.4103C50.7913 18.4103 50.3555 17.9745 50.3555 17.4418V8.72579C50.3555 8.19314 50.7913 7.75734 51.3239 7.75734C51.8566 7.75734 52.2924 8.19314 52.2924 8.72579V17.4418C52.2924 17.9745 51.8566 18.4103 51.3239 18.4103Z" fill="#F1793F"/>
<path d="M51.3266 9.69424C48.6537 9.69424 46.4844 7.52492 46.4844 4.852C46.4844 2.17909 48.6537 0.00976562 51.3266 0.00976562C53.9995 0.00976562 56.1688 2.17909 56.1688 4.852C56.1688 7.52492 53.9995 9.69424 51.3266 9.69424ZM51.3266 1.94666C49.7287 1.94666 48.4213 3.25406 48.4213 4.852C48.4213 6.44994 49.7287 7.75734 51.3266 7.75734C52.9245 7.75734 54.232 6.44994 54.232 4.852C54.232 3.25406 52.9245 1.94666 51.3266 1.94666Z" fill="#F1793F"/>
<path d="M27.113 36.8106C26.5803 36.8106 26.1445 36.3748 26.1445 35.8422V27.1262C26.1445 26.5935 26.5803 26.1577 27.113 26.1577C27.6456 26.1577 28.0814 26.5935 28.0814 27.1262V35.8422C28.0814 36.3748 27.6456 36.8106 27.113 36.8106Z" fill="#F1793F"/>
<path d="M27.1118 28.0946C24.4389 28.0946 22.2695 25.9253 22.2695 23.2524C22.2695 20.5795 24.4389 18.4102 27.1118 18.4102C29.7847 18.4102 31.954 20.5795 31.954 23.2524C31.954 25.9253 29.7847 28.0946 27.1118 28.0946ZM27.1118 20.3471C25.5138 20.3471 24.2064 21.6545 24.2064 23.2524C24.2064 24.8503 25.5138 26.1577 27.1118 26.1577C28.7097 26.1577 30.0171 24.8503 30.0171 23.2524C30.0171 21.6545 28.7097 20.3471 27.1118 20.3471Z" fill="#F1793F"/>
</svg>
