<svg width="231" height="232" viewBox="0 0 231 232" fill="none" xmlns="http://www.w3.org/2000/svg">
<g clip-path="url(#clip0_1_244)">
<path d="M115.479 231.528C51.9182 231.48 0.432067 179.676 0.479983 115.829C0.489567 106.491 1.62039 97.1923 3.85329 88.1291C4.34683 86.0594 6.42161 84.7887 8.47722 85.2893C10.5376 85.7851 11.8026 87.8692 11.3043 89.934C11.3043 89.9533 11.2947 89.9677 11.2899 89.987C-2.96041 147.784 32.1335 206.244 89.6763 220.559C147.214 234.873 205.413 199.622 219.664 141.82C221.743 133.378 222.802 124.709 222.812 116.012C222.85 100.624 219.578 85.4096 213.229 71.4033C212.395 69.4491 213.296 67.1869 215.246 66.3495C217.129 65.5408 219.319 66.3639 220.205 68.217C246.454 126.346 220.823 194.842 162.96 221.209C148.043 228.005 131.857 231.523 115.479 231.533V231.528Z" stroke="black" stroke-width="1.4959" stroke-miterlimit="10"/>
<path d="M43.0256 35.1505C40.9077 35.1505 39.1923 33.4322 39.1875 31.3048C39.1875 30.1785 39.6763 29.11 40.5244 28.3784C41.6744 27.3725 42.8723 26.3906 44.0798 25.4327C77.8848 -1.4296 123.793 -7.07546 163.047 10.8007C164.992 11.6382 165.893 13.9004 165.064 15.8545C164.23 17.8087 161.978 18.7135 160.033 17.8809C159.98 17.8568 159.927 17.8327 159.874 17.8087C123.238 1.1262 80.3956 6.39181 48.8427 31.4492C47.7166 32.3493 46.6098 33.2686 45.5221 34.2072C44.8273 34.8136 43.9456 35.1457 43.0256 35.1505Z" stroke="black" stroke-width="1.4959" stroke-miterlimit="10"/>
<path d="M115.476 231.528C85.3802 231.528 61.8102 180.788 61.8102 116.012C61.8102 51.2361 85.3802 0.495605 115.476 0.495605C139.099 0.495605 159.665 32.768 166.661 80.8035C166.967 82.9068 165.52 84.8658 163.422 85.1739C161.328 85.4819 159.377 84.0283 159.071 81.9201C152.755 38.5101 134.825 8.19669 115.476 8.19669C90.56 8.19669 69.4768 57.5655 69.4768 116.012C69.4768 174.458 90.56 223.827 115.476 223.827C130.992 223.827 145.923 204.257 154.432 172.764C155.012 170.718 157.13 169.53 159.167 170.112C161.17 170.685 162.353 172.759 161.831 174.781C152.228 210.312 134.892 231.528 115.476 231.528Z" stroke="black" stroke-width="1.4959" stroke-miterlimit="10"/>
<path d="M226.643 119.862H192.144C190.026 119.862 188.31 118.139 188.31 116.012C188.31 113.884 190.026 112.161 192.144 112.161H226.643C228.761 112.161 230.477 113.884 230.477 116.012C230.477 118.139 228.761 119.862 226.643 119.862Z" stroke="black" stroke-width="1.4959" stroke-miterlimit="10"/>
<path d="M115.479 119.862H4.31326C2.19536 119.862 0.47995 118.139 0.47995 116.012C0.47995 113.884 2.19536 112.161 4.31326 112.161H115.479C117.597 112.161 119.313 113.884 119.313 116.012C119.313 118.139 117.597 119.862 115.479 119.862Z" stroke="black" stroke-width="1.4959" stroke-miterlimit="10"/>
<path d="M169.143 62.1044H65.6435C63.5256 62.1044 61.8102 60.3813 61.8102 58.2539C61.8102 56.1264 63.5256 54.4033 65.6435 54.4033H169.143C171.261 54.4033 172.976 56.1264 172.976 58.2539C172.976 60.3813 171.261 62.1044 169.143 62.1044Z" stroke="black" stroke-width="1.4959" stroke-miterlimit="10"/>
<path d="M211.311 177.621H19.6459C17.528 177.621 15.8125 175.897 15.8125 173.77C15.8125 171.643 17.528 169.919 19.6459 169.919H211.311C213.429 169.919 215.145 171.643 215.145 173.77C215.145 175.897 213.429 177.621 211.311 177.621Z" stroke="black" stroke-width="1.4959" stroke-miterlimit="10"/>
<path d="M195.978 77.5065C194.799 77.5065 193.683 76.9578 192.959 76.024C190.52 72.8858 169.145 44.9887 169.145 31.3C169.145 16.4128 181.157 4.34619 195.978 4.34619C210.798 4.34619 222.811 16.4128 222.811 31.3C222.811 44.9887 201.435 72.8858 198.996 76.024C198.268 76.9578 197.156 77.5065 195.978 77.5065ZM195.978 12.0473C185.398 12.0617 176.826 20.6725 176.811 31.3C176.811 38.7027 187.564 55.8183 195.978 67.2785C204.411 55.8135 215.144 38.6978 215.144 31.3C215.13 20.6725 206.558 12.0617 195.978 12.0473Z" stroke="#F17B40" stroke-width="1.4959" stroke-miterlimit="10"/>
<path d="M31.143 108.311C29.9643 108.311 28.8478 107.762 28.1243 106.828C25.6853 103.69 4.30984 75.7929 4.30984 62.1042C4.30984 47.217 16.3225 35.1504 31.143 35.1504C45.9635 35.1504 57.9762 47.217 57.9762 62.1042C57.9762 75.7929 36.6007 103.69 34.1617 106.828C33.4334 107.762 32.3218 108.311 31.143 108.311ZM31.143 42.8515C20.5631 42.8659 11.9908 51.4767 11.9765 62.1042C11.9765 69.5069 22.7289 86.6225 31.143 98.0827C39.5763 86.6177 50.3096 69.502 50.3096 62.1042C50.2952 51.4767 41.7229 42.8659 31.143 42.8515Z" stroke="#F17B40" stroke-width="1.4959" stroke-miterlimit="10"/>
<path d="M153.81 162.218C152.631 162.218 151.515 161.67 150.791 160.736C148.352 157.598 126.977 129.701 126.977 116.012C126.977 101.125 138.989 89.0581 153.81 89.0581C168.63 89.0581 180.643 101.125 180.643 116.012C180.643 129.701 159.268 157.598 156.829 160.736C156.1 161.67 154.989 162.218 153.81 162.218ZM153.81 96.7592C143.23 96.7736 134.658 105.384 134.643 116.012C134.643 123.415 145.396 140.53 153.81 151.99C162.243 140.525 172.976 123.41 172.976 116.012C172.962 105.384 164.39 96.7736 153.81 96.7592Z" stroke="#F17B40" stroke-width="1.4959" stroke-miterlimit="10"/>
</g>
<defs>
<clipPath id="clip0_1_244">
<rect width="231" height="232" fill="white"/>
</clipPath>
</defs>
</svg>
