<svg width="240" height="240" viewBox="0 0 240 240" fill="none" xmlns="http://www.w3.org/2000/svg">
<g clip-path="url(#clip0_1_219)">
<path d="M131.988 95.1186C131.988 97.0597 133.564 98.6351 135.505 98.6351H141.366V140.365H99.6363V98.6351H120.501C122.442 98.6351 124.018 97.0597 124.018 95.1186C124.018 93.1775 122.442 91.6021 120.501 91.6021H97.9953C95.0226 91.6021 92.6033 94.0214 92.6033 96.9941V142.006C92.6033 144.978 95.0226 147.398 97.9953 147.398H143.007C145.98 147.398 148.399 144.978 148.399 142.006V96.9941C148.399 94.0214 145.98 91.6021 143.007 91.6021H135.505C133.564 91.6021 131.988 93.1775 131.988 95.1186Z" stroke="#F17B40" stroke-width="1.4959" stroke-miterlimit="10"/>
<path d="M19.9274 13.5352C16.9547 13.5352 14.5353 15.9545 14.5353 18.9272V43.3085C14.5353 46.2812 16.9547 48.7005 19.9274 48.7005H44.3087C47.2813 48.7005 49.7007 46.2812 49.7007 43.3085V18.9272C49.7007 15.9545 47.2813 13.5352 44.3087 13.5352H19.9274ZM42.6676 41.6675H21.5684V20.5682H42.6676V41.6675Z" stroke="#F17B40" stroke-width="1.4959" stroke-miterlimit="10"/>
<path d="M44.3087 190.299H19.9274C16.9547 190.299 14.5353 192.719 14.5353 195.691V220.073C14.5353 223.045 16.9547 225.465 19.9274 225.465H44.3087C47.2813 225.465 49.7007 223.045 49.7007 220.073V195.691C49.7007 192.719 47.2813 190.299 44.3087 190.299ZM42.6676 218.432H21.5684V197.332H42.6676V218.432Z" stroke="#F17B40" stroke-width="1.4959" stroke-miterlimit="10"/>
<path d="M186.376 62.7664H231.388C236.428 62.7664 240.531 58.6638 240.531 53.6234V8.61175C240.531 3.57138 236.428 -0.53125 231.388 -0.53125H186.376C181.336 -0.53125 177.233 3.57138 177.233 8.61175V27.601H135.035C133.094 27.601 131.518 29.1765 131.518 31.1176V77.5359H112.295V63.8026C116.388 62.3491 119.328 58.4434 119.328 53.8579C119.328 48.0392 114.597 43.3082 108.778 43.3082C102.959 43.3082 98.2284 48.0392 98.2284 53.8579C98.2284 58.4434 101.168 62.3491 105.261 63.8026V77.5359H89.5495C83.4777 77.5359 78.5357 82.4778 78.5357 88.5497V108.95H35.634V62.7664H54.6233C59.6637 62.7664 63.7663 58.6638 63.7663 53.6234V44.4804C63.7663 42.5393 62.1909 40.9639 60.2498 40.9639C58.3086 40.9639 56.7332 42.5393 56.7332 44.4804V53.6234C56.7332 54.7862 55.7861 55.7333 54.6233 55.7333H9.61162C8.44882 55.7333 7.5017 54.7862 7.5017 53.6234V8.61175C7.5017 7.44894 8.44882 6.50182 9.61162 6.50182H54.6233C55.7861 6.50182 56.7332 7.44894 56.7332 8.61175V29.4765C56.7332 31.4177 58.3086 32.9931 60.2498 32.9931C62.1909 32.9931 63.7663 31.4177 63.7663 29.4765V8.61175C63.7663 3.57138 59.6637 -0.53125 54.6233 -0.53125H9.61162C4.57125 -0.53125 0.468628 3.57138 0.468628 8.61175V53.6234C0.468628 58.6638 4.57125 62.7664 9.61162 62.7664H28.6009V112.467C28.6009 114.408 30.1763 115.983 32.1175 115.983H78.5357V130.987H73.7111C72.2576 126.894 68.3519 123.954 63.7663 123.954C57.9476 123.954 53.2167 128.685 53.2167 134.504C53.2167 140.322 57.9476 145.053 63.7663 145.053C68.3519 145.053 72.2576 142.114 73.7111 138.02H78.5357V150.45C78.5357 156.522 83.4777 161.464 89.5495 161.464H105.261V203.236H63.7663V185.376C63.7663 180.336 59.6637 176.233 54.6233 176.233H9.61162C4.57125 176.233 0.468628 180.336 0.468628 185.376V230.388C0.468628 235.428 4.57125 239.531 9.61162 239.531H54.6233C59.6637 239.531 63.7663 235.428 63.7663 230.388V210.269H108.778C110.719 210.269 112.295 208.693 112.295 206.752V161.464H131.518V177.073C127.425 178.526 124.485 182.432 124.485 187.017C124.485 192.836 129.216 197.567 135.035 197.567C140.853 197.567 145.584 192.836 145.584 187.017C145.584 182.432 142.645 178.526 138.551 177.073V161.464H151.45C157.522 161.464 162.464 156.522 162.464 150.45V126.51H205.37V176.233H186.376C181.336 176.233 177.233 180.336 177.233 185.376V194.519C177.233 196.46 178.809 198.036 180.75 198.036C182.691 198.036 184.266 196.46 184.266 194.519V185.376C184.266 184.214 185.213 183.266 186.376 183.266H231.388C232.551 183.266 233.498 184.214 233.498 185.376V230.388C233.498 231.551 232.551 232.498 231.388 232.498H186.376C185.213 232.498 184.266 231.551 184.266 230.388V209.467C184.266 207.526 182.691 205.95 180.75 205.95C178.809 205.95 177.233 207.526 177.233 209.467V230.388C177.233 235.428 181.336 239.531 186.376 239.531H231.388C236.428 239.531 240.531 235.428 240.531 230.388V185.376C240.531 180.336 236.428 176.233 231.388 176.233H212.403V122.993C212.403 121.052 210.828 119.476 208.887 119.476H162.464V107.544H179.221C180.675 111.637 184.58 114.577 189.166 114.577C194.985 114.577 199.716 109.846 199.716 104.027C199.716 98.2084 194.985 93.4775 189.166 93.4775C184.58 93.4775 180.675 96.4173 179.221 100.511H162.464V88.5497C162.464 82.4778 157.522 77.5359 151.45 77.5359H138.551V34.6341H177.233V53.6234C177.233 58.6638 181.336 62.7664 186.376 62.7664ZM108.778 50.3413C110.719 50.3413 112.295 51.9167 112.295 53.8579C112.295 55.799 110.719 57.3744 108.778 57.3744C106.837 57.3744 105.261 55.799 105.261 53.8579C105.261 51.9167 106.837 50.3413 108.778 50.3413ZM63.7663 138.02C61.8252 138.02 60.2498 136.445 60.2498 134.504C60.2498 132.563 61.8252 130.987 63.7663 130.987C65.7074 130.987 67.2828 132.563 67.2828 134.504C67.2828 136.445 65.7074 138.02 63.7663 138.02ZM56.7332 230.388C56.7332 231.551 55.7861 232.498 54.6233 232.498H9.61162C8.44882 232.498 7.5017 231.551 7.5017 230.388V185.376C7.5017 184.214 8.44882 183.266 9.61162 183.266H54.6233C55.7861 183.266 56.7332 184.214 56.7332 185.376V230.388ZM135.035 190.534C133.094 190.534 131.518 188.959 131.518 187.017C131.518 185.076 133.094 183.501 135.035 183.501C136.976 183.501 138.551 185.076 138.551 187.017C138.551 188.959 136.976 190.534 135.035 190.534ZM189.166 100.511C191.107 100.511 192.683 102.086 192.683 104.027C192.683 105.968 191.107 107.544 189.166 107.544C187.225 107.544 185.649 105.968 185.649 104.027C185.649 102.086 187.225 100.511 189.166 100.511ZM155.431 88.5497V150.45C155.431 152.644 153.644 154.431 151.45 154.431H89.5495C87.3552 154.431 85.5688 152.644 85.5688 150.45V88.5497C85.5688 86.3553 87.3552 84.5689 89.5495 84.5689H151.45C153.644 84.5689 155.431 86.3553 155.431 88.5497ZM186.376 6.50182H231.388C232.551 6.50182 233.498 7.44894 233.498 8.61175V53.6234C233.498 54.7862 232.551 55.7333 231.388 55.7333H186.376C185.213 55.7333 184.266 54.7862 184.266 53.6234V31.2114C184.266 31.1785 184.271 31.1504 184.271 31.1176C184.271 31.0848 184.271 31.0566 184.266 31.0238V8.61175C184.266 7.44894 185.213 6.50182 186.376 6.50182Z" stroke="black" stroke-width="1.4959" stroke-miterlimit="10"/>
<path d="M196.692 48.7005H221.074C224.046 48.7005 226.466 46.2812 226.466 43.3085V18.9272C226.466 15.9545 224.046 13.5352 221.074 13.5352H196.692C193.72 13.5352 191.3 15.9545 191.3 18.9272V43.3085C191.3 46.2812 193.72 48.7005 196.692 48.7005ZM198.333 20.5682H219.433V41.6675H198.333V20.5682Z" stroke="#F17B40" stroke-width="1.4959" stroke-miterlimit="10"/>
<path d="M221.074 225.465C224.046 225.465 226.466 223.045 226.466 220.073V195.691C226.466 192.719 224.046 190.299 221.074 190.299H196.692C193.72 190.299 191.3 192.719 191.3 195.691V220.073C191.3 223.045 193.72 225.465 196.692 225.465H221.074ZM198.333 197.332H219.433V218.432H198.333V197.332Z" stroke="#F17B40" stroke-width="1.4959" stroke-miterlimit="10"/>
</g>
<defs>
<clipPath id="clip0_1_219">
<rect width="241" height="241" fill="white" transform="translate(0 -1)"/>
</clipPath>
</defs>
</svg>
