<svg width="167" height="165" viewBox="0 0 167 165" fill="none" xmlns="http://www.w3.org/2000/svg">
<g clip-path="url(#clip0_536_11846)">
<path d="M157.216 155.652H126.093L106.12 164.798C104.973 165.321 103.624 164.814 103.101 163.667C102.966 163.363 102.898 163.043 102.898 162.722V120.54C102.898 115.141 107.284 110.754 112.682 110.754H157.216C162.614 110.754 166.999 115.141 166.999 120.54V145.849C166.999 151.249 162.63 155.636 157.232 155.652C157.232 155.652 157.232 155.652 157.216 155.652Z" fill="#F17B40"/>
<path d="M129.99 20.2475H89.404V4.72441C89.404 2.10911 87.2955 0 84.6808 0H77.2586C74.6439 0 72.5354 2.10911 72.5354 4.72441V20.2475H31.9324C14.3047 20.2643 6.58974e-06 34.5557 6.58974e-06 52.1879V71.2205C-0.0168621 112.88 32.3541 147.385 73.9186 150.017C76.5332 150.186 78.7936 148.211 78.9623 145.613C78.9623 145.495 78.9623 145.394 78.9623 145.276V137.852C78.9623 135.354 77.0056 133.296 74.509 133.144C66.1421 132.57 57.9777 130.276 50.5386 126.395C29.8407 115.799 16.8181 94.4882 16.8518 71.2205V52.2047C16.8518 43.8695 23.5993 37.1204 31.9324 37.1204H129.99C138.306 37.1204 145.054 43.8695 145.054 52.1879V71.2205C145.054 77.0585 144.716 82.8796 144.059 88.6839C143.789 91.1811 145.509 93.4421 147.989 93.8639L155.327 95.0787C157.891 95.5006 160.32 93.7795 160.742 91.2149C160.742 91.1305 160.759 91.063 160.775 90.9786C161.535 84.4151 161.923 77.8178 161.923 71.2205V52.2047C161.923 34.5557 147.618 20.2475 129.973 20.2475H129.99Z" fill="black"/>
<path d="M53.9793 87.7391C61.4324 87.7391 67.4743 81.6957 67.4743 74.2407C67.4743 66.7858 61.4324 60.7424 53.9793 60.7424C46.5263 60.7424 40.4844 66.7858 40.4844 74.2407C40.4844 81.6957 46.5263 87.7391 53.9793 87.7391Z" fill="black"/>
<path d="M107.96 87.7391C115.413 87.7391 121.455 81.6957 121.455 74.2407C121.455 66.7858 115.413 60.7424 107.96 60.7424C100.507 60.7424 94.4648 66.7858 94.4648 74.2407C94.4648 81.6957 100.507 87.7391 107.96 87.7391Z" fill="black"/>
</g>
<defs>
<clipPath id="clip0_536_11846">
<rect width="167" height="165" fill="white"/>
</clipPath>
</defs>
</svg>
