<svg width="84" height="84" viewBox="0 0 84 84" fill="none" xmlns="http://www.w3.org/2000/svg">
<path fill-rule="evenodd" clip-rule="evenodd" d="M37.7747 4.2625L41.1182 0.402833C41.3398 0.147 41.6617 0 42 0C42.3383 0 42.6602 0.147 42.8818 0.402833L46.2252 4.2625C46.647 4.7495 46.5942 5.48633 46.1072 5.90817C45.6202 6.32983 44.8835 6.27717 44.4615 5.79017L43.1667 4.29533V11.9003C43.1667 12.5447 42.6443 13.067 42 13.067C41.3557 13.067 40.8333 12.5447 40.8333 11.9003V4.29517L39.5383 5.79C39.1163 6.27717 38.3797 6.32983 37.8927 5.908C37.4057 5.48617 37.3528 4.74933 37.7747 4.26233V4.2625ZM83.5972 41.1182L79.7377 37.7748C79.2507 37.3532 78.5142 37.4057 78.092 37.8928C77.6702 38.3798 77.723 39.1167 78.21 39.5385L79.7048 40.8335H72.0997C71.4553 40.8335 70.933 41.3558 70.933 42.0002C70.933 42.6445 71.4553 43.1668 72.0997 43.1668H79.7048L78.21 44.4617C77.723 44.8835 77.6702 45.6203 78.092 46.1073C78.3228 46.3737 78.6477 46.5102 78.9743 46.5102C79.245 46.5102 79.517 46.4165 79.7377 46.2253L83.5972 42.882C83.853 42.6603 84 42.3387 84 42.0002C84 41.6617 83.853 41.34 83.5972 41.1183V41.1182ZM71.6722 65.697C71.6262 65.0543 71.0657 64.5715 70.4252 64.6168C69.7825 64.6628 69.2987 65.2212 69.345 65.8638L69.4863 67.8363L64.1087 62.4587C63.6533 62.0032 62.9143 62.0032 62.459 62.4587C62.0033 62.9143 62.0033 63.653 62.459 64.1085L67.8365 69.486L65.8638 69.3447C65.2232 69.2982 64.6628 69.7823 64.617 70.4248C64.5708 71.0675 65.0545 71.6258 65.6972 71.6718L70.7905 72.0368C70.8183 72.0388 70.8462 72.0398 70.8738 72.0398C71.1822 72.0398 71.4793 71.9177 71.6987 71.6982C71.9382 71.4588 72.0617 71.1273 72.0373 70.7898L71.6725 65.6967L71.6722 65.697ZM46.107 78.092C45.62 77.6703 44.8832 77.7228 44.4613 78.21L43.1665 79.7047V72.0997C43.1665 71.4553 42.6442 70.933 41.9998 70.933C41.3555 70.933 40.8332 71.4553 40.8332 72.0997V79.7047L39.5383 78.21C39.1163 77.7228 38.3797 77.67 37.8927 78.092C37.4057 78.5138 37.3528 79.2507 37.7747 79.7377L41.118 83.5972C41.3397 83.853 41.6615 84 41.9998 84C42.3382 84 42.66 83.853 42.8817 83.5972L46.225 79.7377C46.6468 79.2507 46.594 78.5138 46.107 78.092ZM19.8913 62.4588L14.5137 67.8365L14.655 65.864C14.7012 65.2213 14.2175 64.663 13.5748 64.617C12.9333 64.5717 12.3738 65.0547 12.3278 65.6972L11.963 70.7903C11.9387 71.1278 12.0623 71.4593 12.3017 71.6987C12.5212 71.9182 12.8183 72.0403 13.1265 72.0403C13.1542 72.0403 13.182 72.0393 13.2098 72.0373L18.3032 71.6723C18.9458 71.6263 19.4297 71.068 19.3833 70.4253C19.3375 69.7827 18.778 69.2987 18.1365 69.3452L16.1638 69.4865L21.5413 64.109C21.997 63.6533 21.997 62.9147 21.5413 62.4592C21.086 62.0037 20.347 62.0037 19.8917 62.4592L19.8913 62.4588ZM13.0668 42.0002C13.0668 41.3558 12.5445 40.8335 11.9002 40.8335H4.29517L5.79 39.5387C6.277 39.1168 6.32983 38.38 5.908 37.893C5.486 37.406 4.74933 37.3533 4.26233 37.775L0.402833 41.1183C0.147 41.34 0 41.6617 0 42.0002C0 42.3387 0.147 42.6603 0.402833 42.882L4.26233 46.2253C4.483 46.4165 4.75483 46.5102 5.02567 46.5102C5.35233 46.5102 5.67717 46.3737 5.908 46.1073C6.32983 45.6203 6.277 44.8835 5.79 44.4617L4.29517 43.1667H11.9002C12.5445 43.1667 13.0668 42.6443 13.0668 42V42.0002ZM12.3277 18.3033C12.3737 18.946 12.9333 19.4305 13.5747 19.3835C14.2173 19.3375 14.7012 18.7792 14.6548 18.1365L14.5135 16.164L19.8912 21.5415C20.1188 21.7693 20.4175 21.8832 20.716 21.8832C21.0145 21.8832 21.3132 21.7692 21.5408 21.5415C21.9965 21.0858 21.9965 20.3472 21.5408 19.8917L16.1632 14.5142L18.136 14.6555C18.7777 14.7017 19.337 14.218 19.383 13.5753C19.4288 12.9327 18.9453 12.3743 18.3027 12.3283L13.2093 11.9633C12.8737 11.9388 12.5403 12.0627 12.3012 12.302C12.0617 12.5413 11.9382 12.8728 11.9625 13.2103L12.3273 18.3035L12.3277 18.3033ZM63.1322 58.5405L58.5398 63.1328C57.7397 63.9328 56.4768 64.0558 55.5372 63.426L53.0887 61.7838L48.1478 63.8308L47.5775 66.7228C47.3588 67.833 46.3787 68.6388 45.247 68.6388H38.7523C37.621 68.6388 36.6408 67.8332 36.4218 66.7232L35.8517 63.8308L30.9107 61.7838L28.4622 63.4258C27.5225 64.056 26.2595 63.9328 25.4595 63.1328L20.8672 58.5403C20.067 57.7402 19.9437 56.4775 20.5738 55.5377L22.2158 53.0892L20.1688 48.1482L17.277 47.578C16.1668 47.3592 15.361 46.379 15.361 45.2473V38.7527C15.361 37.621 16.1668 36.641 17.2772 36.4222L20.1688 35.852L22.2158 30.911L20.5738 28.4627C19.9435 27.5228 20.0668 26.26 20.8672 25.4598L25.4595 20.8675C26.2595 20.0673 27.5225 19.944 28.4622 20.5742L30.9107 22.2162L35.8517 20.1692L36.4217 17.2772C36.6445 16.149 37.6028 15.3613 38.7523 15.3613H45.247C46.3787 15.3613 47.3588 16.167 47.5777 17.2773L48.1478 20.1692L53.0887 22.2162L55.5372 20.5742C56.477 19.944 57.7397 20.0673 58.5398 20.8673L63.1322 25.4598C63.9323 26.2597 64.0558 27.5225 63.4258 28.4623L61.7835 30.911L63.8305 35.852L66.7225 36.4222C67.8325 36.641 68.6383 37.621 68.6383 38.7527V45.2473C68.6383 46.379 67.8327 47.3592 66.7225 47.578L63.8305 48.1482L61.7835 53.0892L63.4257 55.5375C64.0558 56.4773 63.9325 57.7402 63.1322 58.5403V58.5405ZM61.4878 56.8372L59.4977 53.8698C59.2802 53.5457 59.2393 53.1342 59.3888 52.7735L61.9142 46.678C62.0635 46.3173 62.3833 46.0555 62.7663 45.98L66.2713 45.289C66.2965 45.284 66.305 45.2735 66.305 45.2475V38.7528C66.305 38.727 66.2965 38.7165 66.2712 38.7115L62.7662 38.0205C62.3833 37.945 62.0635 37.683 61.9142 37.3225L59.3888 31.227C59.2395 30.8663 59.2803 30.4548 59.4977 30.1307L61.4878 27.1633C61.5022 27.142 61.5008 27.1285 61.4825 27.1102L56.89 22.5177C56.8718 22.4993 56.8582 22.498 56.8368 22.5125L53.8693 24.5023C53.5453 24.7198 53.1337 24.7605 52.773 24.6112L46.6778 22.0858C46.3172 21.9365 46.0552 21.6167 45.9798 21.2337L45.2888 17.7287C45.2838 17.7033 45.2733 17.6948 45.2473 17.6948H38.7527C38.7267 17.6948 38.7162 17.7033 38.7112 17.729L38.0203 21.2337C37.9448 21.6165 37.6828 21.9363 37.3222 22.0858L31.2267 24.6112C30.8663 24.7605 30.4545 24.7197 30.1305 24.5023L27.163 22.5123C27.1413 22.4978 27.1278 22.4995 27.1097 22.5177L22.5173 27.11C22.4992 27.1283 22.4978 27.1417 22.5122 27.1632L24.5022 30.1307C24.7197 30.4548 24.7605 30.8663 24.611 31.227L22.0857 37.3225C21.9363 37.6832 21.6165 37.945 21.2337 38.0205L17.729 38.7115C17.7035 38.7165 17.6948 38.727 17.6948 38.7528V45.2475C17.6948 45.2735 17.7033 45.284 17.7287 45.289L21.2335 45.98C21.6165 46.0555 21.9363 46.3175 22.0857 46.678L24.611 52.7735C24.7603 53.1342 24.7195 53.5457 24.5022 53.8698L22.5122 56.8373C22.4978 56.8588 22.4992 56.8722 22.5173 56.8905L27.1097 61.4828C27.1278 61.501 27.141 61.5025 27.163 61.4878L30.1305 59.4978C30.3255 59.367 30.5522 59.3 30.7803 59.3C30.9313 59.3 31.083 59.3293 31.2267 59.3888L37.3222 61.9142C37.6828 62.0635 37.9448 62.3833 38.0203 62.7663L38.7112 66.2713C38.7162 66.2967 38.7267 66.3053 38.7527 66.3053H45.2473C45.2733 66.3053 45.2838 66.2968 45.2887 66.2715L45.9798 62.7665C46.0552 62.3837 46.3172 62.0638 46.6778 61.9143L52.7732 59.389C53.134 59.2395 53.5455 59.2803 53.8695 59.4978L56.837 61.4878C56.8587 61.5022 56.872 61.5012 56.8903 61.4827L61.4827 56.8903C61.501 56.872 61.5023 56.8585 61.488 56.837L61.4878 56.8372ZM59.6923 42.0002C59.6923 51.7558 51.7555 59.6925 42 59.6925C32.2445 59.6925 24.3077 51.7557 24.3077 42.0002C24.3077 32.2447 32.2445 24.3078 42 24.3078C51.7555 24.3078 59.6923 32.2447 59.6923 42.0002ZM53.046 31.34C52.2375 31.9873 51.3792 32.5587 50.4803 33.0502C51.2623 35.399 51.7245 38.0555 51.826 40.8335H57.315C57.0377 37.1592 55.4615 33.842 53.046 31.34ZM43.1667 32.839C44.6678 32.7255 46.1327 32.3928 47.5197 31.8588C46.3885 29.378 44.862 27.6313 43.1667 27.0733V32.839ZM49.6162 30.8612C50.1897 30.5333 50.7438 30.1685 51.2743 29.766C50.2007 28.9502 49.017 28.2723 47.7495 27.7588C48.255 28.3988 48.7288 29.1283 49.1645 29.9453C49.3223 30.2413 49.4713 30.5485 49.6162 30.8612ZM34.8355 29.9452C35.271 29.1283 35.745 28.3987 36.2505 27.7587C34.9832 28.2722 33.7993 28.95 32.7257 29.7658C33.2562 30.1683 33.8103 30.5332 34.3838 30.861C34.5287 30.5485 34.6777 30.241 34.8355 29.945V29.9452ZM36.4805 31.8588C37.8675 32.3927 39.3323 32.7253 40.8335 32.839V27.0735C39.1382 27.6313 37.6117 29.378 36.4805 31.859V31.8588ZM35.6497 34.038C35.0135 36.0518 34.6055 38.3705 34.5068 40.8335H40.8333V35.178C39.0448 35.0607 37.2998 34.6725 35.6497 34.038ZM34.5068 43.1668C34.6055 45.6298 35.0133 47.9485 35.6495 49.9623C37.2997 49.328 39.0448 48.9395 40.8332 48.8222V43.1668H34.5067H34.5068ZM36.4803 52.1413C37.6115 54.6223 39.138 56.369 40.8333 56.9268V51.1612C39.3322 51.2747 37.8673 51.6073 36.4803 52.1413ZM34.3838 53.139C33.8103 53.4668 33.2562 53.8318 32.7257 54.2343C33.7993 55.0503 34.9832 55.7282 36.2507 56.2417C35.7452 55.6017 35.2712 54.872 34.8357 54.0552C34.6778 53.7592 34.5288 53.4518 34.384 53.1392L34.3838 53.139ZM49.1647 54.055C48.729 54.872 48.2552 55.6015 47.7497 56.2415C49.0172 55.728 50.201 55.0502 51.2747 54.2342C50.7442 53.8317 50.1898 53.4668 49.6165 53.1388C49.4717 53.4515 49.3227 53.7588 49.1648 54.0548L49.1647 54.055ZM47.5198 52.1413C46.1328 51.6075 44.668 51.2748 43.1668 51.1612V56.9268C44.8622 56.369 46.3887 54.6222 47.5198 52.1413ZM48.3505 49.9622C48.9867 47.9483 49.3945 45.6298 49.4932 43.1667H43.1667V48.822C44.9552 48.9393 46.7003 49.3277 48.3503 49.9622H48.3505ZM49.4932 40.8333C49.3945 38.3702 48.9867 36.0517 48.3503 34.0378C46.7002 34.6722 44.955 35.0607 43.1667 35.178V40.8335H49.4932V40.8333ZM26.685 40.8333H32.174C32.2755 38.0552 32.7377 35.3987 33.5197 33.05C32.6208 32.5585 31.7627 31.9872 30.954 31.3398C28.5385 33.8418 26.9623 37.159 26.685 40.8333ZM30.954 52.6602C31.7625 52.0128 32.6208 51.4415 33.5197 50.95C32.7377 48.6012 32.2755 45.9448 32.174 43.1667H26.685C26.9623 46.841 28.5385 50.1582 30.954 52.6602ZM57.3152 43.1667H51.8262C51.7247 45.9448 51.2625 48.6012 50.4805 50.95C51.3793 51.4415 52.2375 52.0128 53.0462 52.6602C55.4617 50.1582 57.0378 46.841 57.3152 43.1667ZM64.9358 10.5145C68.7513 11.3335 72.6667 15.2488 73.4857 19.0643C73.6032 19.6118 74.0868 19.9863 74.6252 19.9863C74.7062 19.9863 74.7885 19.9778 74.8712 19.96C75.5012 19.8248 75.9023 19.2045 75.767 18.5745C74.7423 13.8003 70.1998 9.258 65.4255 8.23317C64.7948 8.09717 64.1753 8.499 64.0402 9.129C63.9048 9.759 64.306 10.3793 64.936 10.5145H64.9358ZM65.856 5.077C71.788 6.35017 77.6498 12.2122 78.923 18.1442C79.0405 18.6917 79.5242 19.0663 80.0625 19.0663C80.1435 19.0663 80.2258 19.0578 80.3085 19.04C80.9385 18.9048 81.3397 18.2845 81.2043 17.6547C80.4988 14.367 78.5712 11.0175 75.7772 8.22317C72.9828 5.42883 69.6335 3.50133 66.3457 2.79583C65.7153 2.66 65.0953 3.06183 64.9603 3.69167C64.825 4.32167 65.2262 4.94183 65.8562 5.077H65.856ZM64.0787 15.8503C65.8953 16.2403 67.7597 18.1047 68.1497 19.9213C68.2672 20.4688 68.7508 20.8435 69.2892 20.8435C69.3702 20.8435 69.4525 20.835 69.5352 20.8172C70.1652 20.682 70.5663 20.0617 70.431 19.4318C69.8502 16.7253 67.275 14.1502 64.5683 13.5692C63.9385 13.4335 63.3182 13.8348 63.183 14.465C63.0477 15.095 63.4488 15.7153 64.0788 15.8505L64.0787 15.8503ZM64.8392 21.9305C65.604 21.1657 65.604 19.9257 64.8392 19.161C64.0743 18.3962 62.8343 18.3962 62.0695 19.161C61.3047 19.9258 61.3047 21.1658 62.0695 21.9305C62.8343 22.6953 64.0743 22.6953 64.8392 21.9305Z" fill="#F1793F"/>
</svg>
