<svg width="193" height="165" viewBox="0 0 193 165" fill="none" xmlns="http://www.w3.org/2000/svg">
<g clip-path="url(#clip0_533_11619)">
<path fill-rule="evenodd" clip-rule="evenodd" d="M60.04 126.566L54.0089 137.02C52.4797 139.673 49.0761 140.586 46.4331 139.055C43.794 137.532 42.8781 134.11 44.4033 131.469L50.4344 121.015C51.9636 118.362 55.3672 117.449 58.018 118.984C60.6648 120.518 61.5769 123.917 60.0439 126.57L60.04 126.566ZM72.5447 127.378C71.6753 126.877 70.7206 126.636 69.7814 126.636C67.8642 126.636 65.9935 127.631 64.9689 129.41L55.1887 146.362C53.6596 149.011 54.5755 152.418 57.2185 153.948C59.8653 155.479 63.2651 154.57 64.7943 151.917L74.5745 134.965C76.1036 132.312 75.1916 128.913 72.5447 127.378ZM33.8081 58.2216C34.0332 58.0313 34.0021 57.7088 33.7421 57.5651L23.3758 51.7927C22.6268 51.377 21.8157 51.4431 21.1404 51.9714C5.8064 64.0756 -2.7474 85.46 0.795984 102.816C0.935701 103.519 1.3238 103.993 1.98358 104.273L10.1182 107.73C10.3899 107.843 10.6693 107.664 10.6693 107.369C10.8673 87.8024 18.8661 70.8114 33.8042 58.2216H33.8081ZM89.66 139.156C89.2758 137.715 88.3599 136.519 87.083 135.777C86.2137 135.275 85.2589 135.038 84.3197 135.038C82.4025 135.038 80.5319 136.033 79.5034 137.812L71.3532 151.948C69.9405 154.578 70.8681 157.884 73.4684 159.387C74.7452 160.125 76.2355 160.319 77.6754 159.931C79.1153 159.542 80.3068 158.629 81.048 157.351L89.1167 143.363C89.8541 142.085 90.0481 140.593 89.66 139.152V139.156ZM148.83 116.42L122.82 101.383C117.739 98.4422 113.001 95.6803 106.935 95.6803C101.513 95.7113 96.6071 98.112 91.8606 100.435C84.3741 104.094 75.8863 108.247 66.727 100.656C64.1267 98.4966 62.6403 95.2646 62.8421 92.2153C63.0284 89.4184 64.5769 86.9711 67.2044 85.3318L88.5811 71.9962C82.3404 68.8924 76.5965 69.3858 70.1113 69.9529C61.5497 70.691 51.8394 71.5378 39.3036 64.4796L36.8586 63.1006C23.7523 74.4085 16.8673 88.8979 16.39 106.196L37.072 116.87C37.367 117.018 37.627 117.22 37.8521 117.461L42.8198 122.81L45.5055 118.16C48.6026 112.792 55.4875 110.943 60.855 114.043C63.7425 115.713 65.6093 118.479 66.2341 121.516C69.1759 120.541 72.502 120.778 75.3895 122.445C78.277 124.111 80.1476 126.881 80.7725 129.915C83.7143 128.94 87.0404 129.177 89.9278 130.843C92.5204 132.343 94.3755 134.77 95.1556 137.676C95.2138 137.89 95.2643 138.103 95.307 138.317C98.2488 137.342 101.579 137.575 104.466 139.245C106.601 140.481 108.239 142.349 109.186 144.598L121.725 151.839C124.159 153.253 127.322 152.406 128.73 149.963C130.108 147.57 129.324 144.462 126.968 143.021L111.619 134.149C110.261 133.364 109.791 131.624 110.575 130.26C111.363 128.897 113.105 128.435 114.464 129.216C120.398 132.646 126.332 136.076 132.266 139.502C134.959 141.06 138.421 140.131 139.974 137.435C141.507 134.778 140.603 131.321 137.967 129.756L122.897 121.05C121.539 120.262 121.073 118.521 121.857 117.158C122.645 115.794 124.384 115.332 125.742 116.117C131.602 119.504 137.463 122.888 143.319 126.275C146.001 127.825 149.478 126.893 151.027 124.208C152.746 121.233 151.407 118.3 148.83 116.42ZM171.864 51.9714C171.48 51.6761 171.057 51.5208 170.622 51.5208C170.289 51.5208 169.951 51.614 169.625 51.7927L159.255 57.5651C159.111 57.6467 159.068 57.7127 159.053 57.8798C159.037 58.0429 159.068 58.1128 159.197 58.2216C174.131 70.8075 182.13 87.7985 182.331 107.369C182.331 107.668 182.611 107.847 182.883 107.73L191.013 104.273C191.673 103.993 192.061 103.515 192.205 102.816C195.748 85.46 187.194 64.0756 171.864 51.9714ZM156.08 63.0501L150.992 65.8858C142.593 70.5589 133.236 71.4057 123.926 68.3331C115.682 65.6139 107.039 67.191 97.4881 73.1499L70.2161 90.1681C69.1371 90.844 68.586 91.6365 68.5201 92.5998C68.4347 93.8351 69.1604 95.2763 70.3558 96.2707C76.3986 101.278 81.2692 99.2812 89.3612 95.3229C94.4337 92.8407 100.185 90.0321 106.9 89.9894C114.231 89.9894 119.532 92.9067 125.672 96.4572L151.811 111.564C153.134 112.306 154.877 114.124 155.692 115.425L176.603 105.745C176.017 88.6221 169.116 74.2687 156.084 63.054L156.08 63.0501ZM114.227 154.088L109.795 151.528C109.546 152.597 109.143 153.634 108.576 154.613L105.565 159.834L107.94 161.17C112.104 163.574 114.817 162.269 115.981 160.253C117.037 158.42 116.924 155.731 114.223 154.088H114.227ZM101.621 144.179C98.9784 142.668 95.5825 143.542 94.0417 146.21L88.0106 156.668C86.4854 159.313 87.3974 162.724 90.0404 164.25C92.6911 165.781 96.087 164.868 97.62 162.219L103.651 151.761C105.184 149.12 104.257 145.705 101.625 144.175L101.621 144.179Z" fill="black"/>
<path fill-rule="evenodd" clip-rule="evenodd" d="M123.44 50.9497C124.775 37.4742 135.429 26.8111 148.892 25.4749C135.429 24.1386 124.775 13.4755 123.44 0C122.105 13.4755 111.452 24.1386 97.9883 25.4749C111.452 26.8111 122.105 37.4742 123.44 50.9497Z" fill="#F17A3F"/>
<path fill-rule="evenodd" clip-rule="evenodd" d="M77.7358 59.3403C78.8302 48.3121 87.5432 39.5913 98.5614 38.4958C87.5432 37.4004 78.8302 28.6796 77.7358 17.6514C76.6413 28.6796 67.9284 37.4004 56.9102 38.4958C67.9284 39.5913 76.6413 48.3121 77.7358 59.3403Z" fill="#F17A3F"/>
</g>
<defs>
<clipPath id="clip0_533_11619">
<rect width="193" height="165" fill="white"/>
</clipPath>
</defs>
</svg>
