<svg width="221" height="221" viewBox="0 0 221 221" fill="none" xmlns="http://www.w3.org/2000/svg">
<g clip-path="url(#clip0_1_236)">
<path d="M146.003 69.0573C155.237 78.2922 163.847 87.971 171.591 97.7118C175.7 88.9251 177.954 79.1975 177.954 69.0573C177.954 49.327 169.389 31.6027 155.837 19.2568C143.668 24.5023 130.177 32.5035 116.403 42.6571C126.241 50.4187 136.2 59.2587 146.003 69.0573Z" stroke="black" stroke-width="1.4959" stroke-miterlimit="10"/>
<path d="M146.007 182.664V172.013H138.902V157.812H146.007V147.162H138.902V132.482C138.902 131.141 139.656 129.917 140.85 129.313C152.015 123.677 161.095 115.281 167.485 105.203L167.477 105.194C167.503 105.158 167.53 105.123 167.556 105.087C167.676 104.901 167.814 104.719 167.929 104.528C159.879 94.1883 150.777 83.8838 140.974 74.0764C130.697 63.7985 120.476 54.8077 110.567 47.0815C100.307 55.0517 89.9846 64.1092 80.013 74.0764C70.068 84.0214 61.0283 94.3214 53.0758 104.555C59.4884 114.93 68.7411 123.557 80.1461 129.309C81.3443 129.917 82.0943 131.141 82.0943 132.477V147.157H74.9939V157.808H82.0943V172.009H74.9939V182.659H89.5142V189.76C91.2094 199.816 99.9607 207.511 110.496 207.511C121.031 207.511 129.778 199.816 131.478 189.76V182.659H146.002L146.007 182.664ZM117.601 90.3585C117.601 89.4177 117.973 88.5124 118.639 87.8467L129.29 77.1961L134.309 82.2152L124.697 91.8274V147.162H117.596V90.3585H117.601ZM86.6873 82.2197L91.7064 77.2006L102.357 87.8512C103.023 88.5168 103.395 89.4221 103.395 90.3629V147.166H96.2951V91.8318L86.6829 82.2197H86.6873Z" stroke="black" stroke-width="1.4959" stroke-miterlimit="10"/>
<path d="M43.0967 70.4729C43.2077 75.7228 43.9133 80.8528 45.1691 85.8009C46.2076 89.9058 47.6232 93.8687 49.3939 97.663C57.0179 88.0775 65.6094 78.4476 74.9997 69.0573C84.7361 59.3209 94.7344 50.4454 104.671 42.6038C90.4431 32.0953 76.9967 24.3026 65.1568 19.2568C51.6083 31.6071 43.0435 49.3315 43.0435 69.0573C43.0435 69.5321 43.0834 70.0025 43.0923 70.4729H43.0967Z" stroke="black" stroke-width="1.4959" stroke-miterlimit="10"/>
<path d="M149.651 14.2334C138.601 6.31641 125.102 1.60352 110.502 1.60352C95.9014 1.60352 82.3485 6.3386 71.2808 14.2866C83.5245 19.8737 96.8333 27.8927 110.506 38.1351C124.05 27.9815 137.354 19.8782 149.651 14.2378V14.2334Z" stroke="black" stroke-width="1.4959" stroke-miterlimit="10"/>
<path d="M220.557 15.8041C220.557 4.05741 211.003 -5.49707 199.256 -5.49707C191.326 -5.49707 184.407 -1.13476 180.742 5.31329C173.725 5.74375 165.777 7.73187 157.221 11.0424C159.307 12.7288 161.326 14.495 163.221 16.3944C168.578 14.5039 173.632 13.1903 178.221 12.6178C178.061 13.6563 177.955 14.7213 177.955 15.8041C177.955 27.5509 187.509 37.1053 199.256 37.1053C200.33 37.1053 201.377 36.9988 202.411 36.8479C200.858 49.0873 194.361 64.7392 183.968 81.616C182.202 92.0979 178.265 101.936 172.474 110.577C174.622 113.492 176.708 116.404 178.665 119.297C176.042 121.875 174.404 125.452 174.404 129.411C174.404 137.243 180.773 143.611 188.605 143.611C189.999 143.611 191.317 143.35 192.59 142.972C203.867 165.844 205.917 184.061 197.96 192.023C190.172 199.807 172.958 198.107 151.018 187.683C149.731 188.97 147.955 189.764 145.998 189.764H139.493C156.716 199.128 171.844 203.907 183.644 203.907C191.805 203.907 198.386 201.631 202.979 197.037C213.55 186.467 211.997 166.026 198.714 139.351C201.235 136.791 202.802 133.285 202.802 129.411C202.802 121.578 196.433 115.21 188.601 115.21C187.296 115.21 186.054 115.445 184.846 115.778C182.344 112.059 179.694 108.318 176.89 104.572C196.833 77.9415 208.637 52.7307 209.773 34.3007C216.204 30.6307 220.553 23.7211 220.553 15.8041H220.557Z" stroke="#F17B40" stroke-width="1.4959" stroke-miterlimit="10"/>
<path d="M18.1963 79.7075C18.1963 87.5402 24.5645 93.9083 32.3971 93.9083C35.0154 93.9083 37.4428 93.1717 39.5375 91.9247C37.2165 84.6601 35.9473 76.9783 35.9473 69.0569C35.9473 68.0451 36.0583 67.0644 36.0982 66.0659C34.9133 65.7375 33.6885 65.5067 32.3971 65.5067C31.0037 65.5067 29.6857 65.7686 28.412 66.1458C17.1357 43.2736 15.081 25.0566 23.0423 17.0953C29.1753 10.9623 41.5966 10.7715 57.7766 16.3986C59.6494 14.5258 61.6375 12.7685 63.701 11.0999C43.5448 3.33828 27.0408 3.05426 18.0188 12.0718C7.44809 22.6425 9.0013 43.0828 22.2835 69.7581C19.7628 72.3231 18.1963 75.8289 18.1963 79.7031V79.7075Z" stroke="#F17B40" stroke-width="1.4959" stroke-miterlimit="10"/>
<path d="M69.9743 187.678C59.803 192.506 50.5858 195.502 42.7842 196.483C42.9395 195.444 43.046 194.397 43.046 193.314C43.046 181.567 33.4915 172.013 21.7448 172.013C20.6576 172.013 19.5969 172.119 18.5541 172.279C20.6221 155.74 31.6188 133.546 48.5355 110.581C47.0932 108.433 45.7708 106.205 44.5637 103.92C24.6826 130.307 12.4122 155.895 11.254 174.8C4.80591 178.465 0.443604 185.384 0.443604 193.314C0.443604 205.061 9.99808 214.615 21.7448 214.615C29.6706 214.615 36.5846 210.257 40.2502 203.818C51.6331 203.108 65.8028 198.302 81.5036 189.764H74.9978C73.0363 189.764 71.2612 188.965 69.9743 187.678Z" stroke="#F17B40" stroke-width="1.4959" stroke-miterlimit="10"/>
</g>
<defs>
<clipPath id="clip0_1_236">
<rect width="221" height="221" fill="white"/>
</clipPath>
</defs>
</svg>
