<svg width="81" height="81" viewBox="0 0 81 81" fill="none" xmlns="http://www.w3.org/2000/svg">
<path d="M14.1899 62.3999C13.0599 62.3999 11.9698 62.68 11.0098 63.21C5.93977 56.7 3.1499 48.62 3.1499 40.34C3.1499 19.83 19.8298 3.1499 40.3398 3.1499C42.8298 3.1499 45.32 3.39989 47.75 3.88989C48.6 4.05989 49.4299 3.50991 49.6099 2.65991C49.7899 1.80991 49.2299 0.979927 48.3799 0.799927C45.7499 0.269927 43.0496 0 40.3496 0C29.5696 0 19.4398 4.19995 11.8198 11.8199C4.19982 19.4399 0 29.57 0 40.35C0 49.41 3.07969 58.26 8.67969 65.35C7.95969 66.43 7.56982 67.6899 7.56982 69.0199C7.56982 70.7899 8.25977 72.45 9.50977 73.7C10.7598 74.95 12.4199 75.6399 14.1899 75.6399C15.9599 75.6399 17.6196 74.95 18.8696 73.7C20.1196 72.45 20.8096 70.7899 20.8096 69.0199C20.8096 67.2499 20.1196 65.59 18.8696 64.34C17.6196 63.09 15.9599 62.3999 14.1899 62.3999ZM16.6396 71.47C15.9896 72.12 15.1099 72.49 14.1899 72.49C13.2699 72.49 12.3897 72.13 11.7397 71.47C11.0897 70.81 10.7197 69.9399 10.7197 69.0199C10.7197 68.0999 11.0797 67.2199 11.7397 66.5699C12.3897 65.9199 13.2699 65.5499 14.1899 65.5499C15.1099 65.5499 15.9896 65.9099 16.6396 66.5699C17.2896 67.2199 17.6597 68.0999 17.6597 69.0199C17.6597 69.9399 17.2996 70.82 16.6396 71.47Z" fill="url(#paint0_linear_176_85735)"/>
<path d="M72.0001 15.3398C73.7101 12.7698 73.44 9.25987 71.17 6.98987C69.92 5.73987 68.2598 5.0498 66.4898 5.0498C64.7198 5.0498 63.0596 5.73987 61.8096 6.98987C60.5596 8.23987 59.8697 9.8998 59.8697 11.6698C59.8697 13.4398 60.5596 15.0999 61.8096 16.3499C63.0596 17.5999 64.7198 18.2898 66.4898 18.2898C67.6198 18.2898 68.71 18.0099 69.67 17.4799C74.74 23.9899 77.5299 32.0699 77.5299 40.3499C77.5299 60.8599 60.8499 77.5398 40.3399 77.5398C37.8699 77.5398 35.4001 77.2998 33.0001 76.8198C32.1501 76.6498 31.32 77.1998 31.15 78.0598C30.98 78.9098 31.5297 79.7398 32.3897 79.9098C34.9897 80.4298 37.6699 80.6898 40.3399 80.6898C51.1199 80.6898 61.2497 76.4899 68.8697 68.8699C76.4897 61.2499 80.69 51.1198 80.69 40.3398C80.69 31.2798 77.6098 22.4298 72.0098 15.3398H72.0001ZM64.0396 14.1199C63.3896 13.4699 63.0196 12.5898 63.0196 11.6698C63.0196 10.7498 63.3796 9.86985 64.0396 9.21985C64.6896 8.56985 65.5698 8.19983 66.4898 8.19983C67.4098 8.19983 68.29 8.55985 68.94 9.21985C70.29 10.5698 70.29 12.7699 68.94 14.1199C68.29 14.7699 67.4098 15.1398 66.4898 15.1398C65.5698 15.1398 64.6896 14.7799 64.0396 14.1199Z" fill="url(#paint1_linear_176_85735)"/>
<path d="M33.8403 67.4497C33.8403 68.3197 34.5504 69.0297 35.4204 69.0297H45.27C46.14 69.0297 46.8501 68.3197 46.8501 67.4497V64.3896C48.9201 63.8296 50.9003 63.0097 52.7603 61.9397L54.9204 64.0997C55.2204 64.3997 55.6203 64.5597 56.0303 64.5597C56.4403 64.5597 56.8501 64.3897 57.1401 64.0997L64.1001 57.1298C64.7101 56.5098 64.7101 55.5197 64.1001 54.8997L61.9502 52.7498C63.0202 50.8898 63.8404 48.9097 64.4004 46.8397H67.4404C68.3104 46.8397 69.02 46.1298 69.02 45.2598V35.4097C69.02 34.5397 68.3104 33.8297 67.4404 33.8297H64.4004C63.8404 31.7597 63.0202 29.7797 61.9502 27.9197L64.0903 25.7797C64.3903 25.4797 64.5503 25.0797 64.5503 24.6697C64.5503 24.2497 64.3803 23.8497 64.0903 23.5597L57.1201 16.5997C56.5101 15.9897 55.5101 15.9897 54.8901 16.5997L52.7505 18.7397C50.8905 17.6697 48.9103 16.8497 46.8403 16.2897V13.2598C46.8403 12.3898 46.1303 11.6797 45.2603 11.6797H35.4102C34.5402 11.6797 33.8301 12.3898 33.8301 13.2598V16.2897C31.7601 16.8497 29.7804 17.6697 27.9204 18.7397L25.7803 16.5997C25.1703 15.9897 24.1703 15.9797 23.5503 16.5997L16.5801 23.5697C16.2801 23.8697 16.1201 24.2697 16.1201 24.6797C16.1201 25.0897 16.2901 25.4997 16.5801 25.7897L18.7202 27.9297C17.6502 29.7897 16.83 31.7697 16.27 33.8397H13.2305C12.3605 33.8397 11.6504 34.5497 11.6504 35.4197V45.2697C11.6504 45.6897 11.8104 46.0898 12.1104 46.3798C12.4104 46.6698 12.8102 46.8397 13.2202 46.8397H16.2603C16.8203 48.9097 17.6404 50.8898 18.7104 52.7498L16.5601 54.8997C15.9501 55.5097 15.9401 56.5098 16.5601 57.1298L23.52 64.0997C23.82 64.3997 24.2204 64.5597 24.6304 64.5597C25.0504 64.5597 25.4502 64.3897 25.7402 64.0997L27.9004 61.9397C29.7604 63.0097 31.7401 63.8296 33.8101 64.3896V67.4497H33.8403ZM28.54 58.6298C27.92 58.2298 27.1003 58.3097 26.5703 58.8397L24.6504 60.7598L19.9102 56.0197L21.8301 54.0997C22.3601 53.5697 22.44 52.7498 22.04 52.1298C20.61 49.9198 19.6101 47.4997 19.0601 44.9297C18.9001 44.1997 18.26 43.6897 17.52 43.6897H14.8101V36.9897H17.52C18.26 36.9897 18.9001 36.4698 19.0601 35.7498C19.6101 33.1798 20.62 30.7597 22.04 28.5497C22.44 27.9297 22.3601 27.1097 21.8301 26.5797L19.9302 24.6697L24.6704 19.9297L26.5703 21.8297C27.1003 22.3597 27.92 22.4397 28.54 22.0397C30.75 20.6097 33.1702 19.6097 35.7402 19.0597C36.4702 18.8997 36.9805 18.2597 36.9805 17.5197V14.8297H43.6802V17.5197C43.6802 18.2597 44.2004 18.9097 44.9204 19.0597C47.4904 19.6097 49.9101 20.6197 52.1201 22.0397C52.7401 22.4397 53.5603 22.3597 54.0903 21.8297L55.9902 19.9297L60.7305 24.6697L58.8301 26.5697C58.3001 27.0997 58.2201 27.9197 58.6201 28.5397C60.0501 30.7497 61.0501 33.1697 61.6001 35.7397C61.7601 36.4697 62.4001 36.9797 63.1401 36.9797H65.8501V43.6797H63.1401C62.4001 43.6797 61.7601 44.1997 61.6001 44.9197C61.0501 47.4897 60.0401 49.9098 58.6201 52.1198C58.2201 52.7397 58.3001 53.5597 58.8301 54.0897L60.7505 56.0098L56.0103 60.7498L54.0903 58.8297C53.5603 58.2997 52.7401 58.2197 52.1201 58.6198C49.9101 60.0498 47.4904 61.0497 44.9204 61.5997C44.1904 61.7597 43.6802 62.3996 43.6802 63.1396V65.8597H36.9805V63.1396C36.9805 62.3996 36.4602 61.7597 35.7402 61.5997C33.1702 61.0497 30.75 60.0397 28.54 58.6198V58.6298Z" fill="url(#paint2_linear_176_85735)"/>
<path d="M53.3604 40.3403C53.3604 33.1603 47.5203 27.3203 40.3403 27.3203C33.1603 27.3203 27.3203 33.1603 27.3203 40.3403C27.3203 47.5203 33.1603 53.3604 40.3403 53.3604C47.5203 53.3604 53.3604 47.5203 53.3604 40.3403ZM30.4702 40.3403C30.4702 34.9003 34.9003 30.4703 40.3403 30.4703C45.7803 30.4703 50.2104 34.9003 50.2104 40.3403C50.2104 45.7803 45.7803 50.2103 40.3403 50.2103C34.9003 50.2103 30.4702 45.7803 30.4702 40.3403Z" fill="url(#paint3_linear_176_85735)"/>
<path d="M54.8491 5.95959C55.2591 5.95959 55.6695 5.78963 55.9595 5.49963C56.2495 5.20963 56.4194 4.79964 56.4194 4.37964C56.4194 3.95964 56.2495 3.55953 55.9595 3.26953C55.6695 2.97953 55.2591 2.80957 54.8491 2.80957C54.4391 2.80957 54.0293 2.97953 53.7393 3.26953C53.4493 3.55953 53.2793 3.96964 53.2793 4.37964C53.2793 4.78964 53.4493 5.19963 53.7393 5.49963C54.0293 5.78963 54.4391 5.95959 54.8491 5.95959Z" fill="black"/>
<path d="M25.9004 74.75C25.4904 74.75 25.08 74.92 24.79 75.21C24.5 75.5 24.3301 75.9099 24.3301 76.3199C24.3301 76.7299 24.5 77.1399 24.79 77.4299C25.08 77.7199 25.4904 77.8899 25.9004 77.8899C26.3104 77.8899 26.7203 77.7199 27.0103 77.4299C27.3003 77.1399 27.4702 76.7299 27.4702 76.3199C27.4702 75.9099 27.3003 75.5 27.0103 75.21C26.7203 74.92 26.3104 74.75 25.9004 74.75Z" fill="black"/>
<defs>
<linearGradient id="paint0_linear_176_85735" x1="0" y1="37.8199" x2="49.6299" y2="37.8199" gradientUnits="userSpaceOnUse">
<stop stop-color="#ED683C"/>
<stop offset="0.25" stop-color="#E93E3A"/>
<stop offset="0.57" stop-color="#F3903F" stop-opacity="0.4"/>
<stop offset="0.76" stop-color="#FDC70C" stop-opacity="0.2"/>
<stop offset="1" stop-color="#FFF33B" stop-opacity="0.1"/>
</linearGradient>
<linearGradient id="paint1_linear_176_85735" x1="31.12" y1="42.8698" x2="80.68" y2="42.8698" gradientUnits="userSpaceOnUse">
<stop offset="0.52" stop-color="#7800BF" stop-opacity="0.2"/>
<stop offset="0.56" stop-color="#8400BB" stop-opacity="0.35"/>
<stop offset="0.63" stop-color="#9600B5" stop-opacity="0.54"/>
<stop offset="0.7" stop-color="#A500B1" stop-opacity="0.71"/>
<stop offset="0.77" stop-color="#B000AE" stop-opacity="0.84"/>
<stop offset="0.85" stop-color="#B800AB" stop-opacity="0.93"/>
<stop offset="0.92" stop-color="#BD00AA" stop-opacity="0.98"/>
<stop offset="1" stop-color="#BF00AA"/>
</linearGradient>
<linearGradient id="paint2_linear_176_85735" x1="11.6604" y1="40.3397" x2="69.02" y2="40.3397" gradientUnits="userSpaceOnUse">
<stop offset="0.19" stop-color="#5FA3FF" stop-opacity="0.2"/>
<stop offset="0.21" stop-color="#5497FB" stop-opacity="0.27"/>
<stop offset="0.28" stop-color="#3678F1" stop-opacity="0.46"/>
<stop offset="0.36" stop-color="#1E5FE9" stop-opacity="0.61"/>
<stop offset="0.42" stop-color="#0D4EE3" stop-opacity="0.71"/>
<stop offset="0.49" stop-color="#0343E0" stop-opacity="0.78"/>
<stop offset="0.54" stop-color="#0040DF" stop-opacity="0.8"/>
<stop offset="0.61" stop-color="#004EDF" stop-opacity="0.81"/>
<stop offset="0.74" stop-color="#0075DF" stop-opacity="0.85"/>
<stop offset="0.92" stop-color="#00B4DF" stop-opacity="0.92"/>
<stop offset="1" stop-color="#00D5DF" stop-opacity="0.95"/>
</linearGradient>
<linearGradient id="paint3_linear_176_85735" x1="27.3203" y1="40.3403" x2="53.3604" y2="40.3403" gradientUnits="userSpaceOnUse">
<stop stop-color="#FFF33B" stop-opacity="0.1"/>
<stop offset="0.06" stop-color="#FEE128" stop-opacity="0.14"/>
<stop offset="0.17" stop-color="#FDCD12" stop-opacity="0.19"/>
<stop offset="0.28" stop-color="#FDC70C" stop-opacity="0.2"/>
<stop offset="0.67" stop-color="#F3903F" stop-opacity="0.4"/>
<stop offset="0.89" stop-color="#ED683C"/>
<stop offset="1" stop-color="#E93E3A"/>
</linearGradient>
</defs>
</svg>
