<svg width="75" height="75" viewBox="0 0 75 75" fill="none" xmlns="http://www.w3.org/2000/svg">
<path d="M66.2178 41.1487C67.9437 41.1487 69.6309 40.6369 71.0659 39.678C72.501 38.7191 73.6194 37.3563 74.2799 35.7617C74.9404 34.1672 75.1132 32.4126 74.7765 30.7199C74.4398 29.0272 73.6087 27.4723 72.3883 26.2519C71.1679 25.0315 69.613 24.2004 67.9203 23.8637C66.2275 23.527 64.4729 23.6998 62.8784 24.3602C61.2839 25.0207 59.921 26.1392 58.9622 27.5742C58.0033 29.0093 57.4915 30.6964 57.4915 32.4223C57.4915 32.628 57.5077 32.83 57.5227 33.0332L49.3972 34.8059C48.713 32.7196 47.4905 30.8508 45.8531 29.3881L51.6823 22.3945C53.5705 23.5555 55.8284 23.958 58.0015 23.5212C60.1746 23.0843 62.1015 21.8404 63.3943 20.04C64.6872 18.2395 65.25 16.0161 64.9694 13.8173C64.6889 11.6186 63.5858 9.60777 61.8823 8.18963C60.1787 6.77149 58.0012 6.05133 55.788 6.17414C53.5749 6.29694 51.4904 7.25358 49.9542 8.85149C48.418 10.4494 47.5442 12.5699 47.5086 14.7862C47.473 17.0025 48.2784 19.15 49.7625 20.7964L43.8323 27.9121C42.2924 27.0001 40.5727 26.4339 38.7922 26.2528V17.3632C40.9758 17.048 42.9589 15.9174 44.3425 14.199C45.7261 12.4806 46.4075 10.3019 46.2495 8.10142C46.0915 5.90089 45.1059 3.84188 43.491 2.33876C41.8761 0.835646 39.7518 0 37.5456 0C35.3394 0 33.2151 0.835646 31.6002 2.33876C29.9853 3.84188 28.9997 5.90089 28.8417 8.10142C28.6837 10.3019 29.365 12.4806 30.7487 14.199C32.1323 15.9174 34.1154 17.048 36.299 17.3632V26.2528C34.5168 26.4332 32.7952 26.9994 31.2539 27.9121L25.3287 20.7964C26.8076 19.1513 27.6085 17.0071 27.57 14.7953C27.5316 12.5835 26.6567 10.4684 25.1215 8.87574C23.5863 7.28307 21.5048 6.33107 19.296 6.21137C17.0871 6.09168 14.9149 6.81318 13.2166 8.23064C11.5183 9.6481 10.42 11.6563 10.1428 13.8509C9.86555 16.0456 10.43 18.2638 11.7225 20.0591C13.015 21.8543 14.9395 23.0933 17.1088 23.5266C19.278 23.9599 21.5309 23.5554 23.4139 22.3945L29.2431 29.3881C27.6057 30.8508 26.3832 32.7196 25.699 34.8059L17.5685 33.0332C17.5835 32.83 17.5997 32.628 17.5997 32.4223C17.6084 30.2333 16.7973 28.1203 15.3261 26.4994C13.8549 24.8784 11.8302 23.8669 9.65064 23.664C7.47104 23.4611 5.29443 24.0815 3.54932 25.403C1.80421 26.7245 0.617022 28.6515 0.221484 30.8045C-0.174055 32.9575 0.250709 35.1805 1.41215 37.036C2.5736 38.8916 4.38758 40.245 6.49698 40.8301C8.60638 41.4151 10.8584 41.1893 12.8096 40.1971C14.7609 39.2049 16.27 37.5182 17.04 35.4691L25.1654 37.243C25.1102 37.7118 25.0815 38.1834 25.0794 38.6554V43.6419C25.0794 43.7466 25.0956 43.8476 25.1043 43.9498L16.2857 47.7869C15.1157 45.8936 13.2718 44.514 11.1252 43.9258C8.97869 43.3377 6.68902 43.5848 4.71738 44.6174C2.74573 45.6499 1.23858 47.3912 0.499447 49.4905C-0.239683 51.5899 -0.155874 53.8913 0.733992 55.9313C1.62386 57.9713 3.25368 59.5984 5.2952 60.4848C7.33673 61.3712 9.6383 61.4511 11.7364 60.7084C13.8345 59.9657 15.5732 58.4556 16.6024 56.4822C17.6316 54.5088 17.8748 52.2188 17.283 50.0732L26.2014 46.1925C26.5691 46.5382 27.0077 46.7998 27.4866 46.9591L27.7359 48.4551C27.8891 49.373 28.2271 50.2503 28.7294 51.0337C29.2317 51.8171 29.8878 52.4904 30.658 53.0127C30.865 53.1524 31.0831 53.3082 31.3162 53.4715C31.6902 53.7395 32.1128 54.0325 32.5629 54.3217V54.9188C29.1565 55.2317 25.9897 56.8053 23.683 59.3313C21.3763 61.8572 20.096 65.1535 20.0929 68.5743V71.0675C20.0929 72.0594 20.4869 73.0106 21.1883 73.712C21.8897 74.4134 22.8409 74.8074 23.8328 74.8074H51.2584C52.2503 74.8074 53.2015 74.4134 53.9029 73.712C54.6042 73.0106 54.9983 72.0594 54.9983 71.0675V68.5743C54.9937 65.1552 53.7133 61.8609 51.4075 59.3364C49.1017 56.8118 45.9367 55.2387 42.5321 54.925V54.3279C42.9771 54.0387 43.3935 53.7457 43.7787 53.4777C44.0118 53.3144 44.23 53.1586 44.4357 53.019C45.2061 52.497 45.8624 51.824 46.3649 51.0408C46.8675 50.2576 47.2056 49.3804 47.359 48.4626L47.6083 46.9591C48.0872 46.7998 48.5258 46.5382 48.8936 46.1925L57.8106 50.0732C57.224 52.2068 57.4674 54.4834 58.4918 56.4447C59.5162 58.4061 61.2456 59.9066 63.3318 60.6441C65.418 61.3817 67.7062 61.3015 69.7357 60.4199C71.7652 59.5382 73.3854 57.9204 74.2701 55.8922C75.1548 53.864 75.2384 51.576 74.5039 49.4887C73.7695 47.4014 72.2716 45.6697 70.3118 44.6424C68.352 43.6151 66.0758 43.3683 63.9413 43.9517C61.8069 44.5351 59.9727 45.9055 58.8079 47.7869L49.9869 43.9498C49.9956 43.8476 50.0118 43.7466 50.0118 43.6419V38.6554C50.0097 38.1834 49.981 37.7118 49.9258 37.243L58.0512 35.4691C58.6719 37.1349 59.7866 38.5714 61.246 39.5864C62.7055 40.6015 64.4401 41.1465 66.2178 41.1487ZM56.2449 8.73656C57.4777 8.73656 58.6828 9.10213 59.7078 9.78703C60.7328 10.4719 61.5317 11.4454 62.0035 12.5844C62.4753 13.7233 62.5987 14.9766 62.3582 16.1857C62.1177 17.3948 61.5241 18.5054 60.6523 19.3771C59.7806 20.2488 58.67 20.8425 57.4609 21.083C56.2518 21.3235 54.9985 21.2001 53.8596 20.7283C52.7206 20.2565 51.7472 19.4576 51.0623 18.4326C50.3773 17.4076 50.0118 16.2024 50.0118 14.9697C50.0138 13.3171 50.6711 11.7329 51.8396 10.5644C53.0081 9.39588 54.5924 8.73854 56.2449 8.73656ZM12.6132 14.9697C12.6132 13.7369 12.9788 12.5318 13.6637 11.5067C14.3486 10.4817 15.3221 9.6828 16.461 9.21103C17.5999 8.73926 18.8532 8.61582 20.0623 8.85633C21.2714 9.09683 22.3821 9.69048 23.2538 10.5622C24.1255 11.4339 24.7191 12.5445 24.9596 13.7536C25.2001 14.9627 25.0767 16.216 24.6049 17.355C24.1332 18.4939 23.3343 19.4674 22.3092 20.1523C21.2842 20.8372 20.0791 21.2028 18.8463 21.2028C17.1938 21.2008 15.6095 20.5434 14.441 19.3749C13.2725 18.2064 12.6152 16.6222 12.6132 14.9697ZM8.87335 38.6554C7.64056 38.6554 6.43545 38.2899 5.41043 37.605C4.3854 36.9201 3.58649 35.9466 3.11472 34.8076C2.64295 33.6687 2.51951 32.4154 2.76002 31.2063C3.00053 29.9972 3.59417 28.8866 4.46588 28.0149C5.3376 27.1431 6.44823 26.5495 7.65733 26.309C8.86643 26.0685 10.1197 26.1919 11.2587 26.6637C12.3976 27.1355 13.3711 27.9344 14.056 28.9594C14.7409 29.9844 15.1064 31.1895 15.1064 32.4223C15.1045 34.0748 14.4471 35.6591 13.2786 36.8276C12.1101 37.9961 10.5259 38.6534 8.87335 38.6554ZM8.87335 58.6013C7.64056 58.6013 6.43545 58.2358 5.41043 57.5509C4.3854 56.866 3.58649 55.8925 3.11472 54.7535C2.64295 53.6146 2.51951 52.3613 2.76002 51.1522C3.00053 49.9431 3.59417 48.8325 4.46588 47.9608C5.3376 47.0891 6.44823 46.4954 7.65733 46.2549C8.86643 46.0144 10.1197 46.1378 11.2587 46.6096C12.3976 47.0814 13.3711 47.8803 14.056 48.9053C14.7409 49.9303 15.1064 51.1354 15.1064 52.3682C15.1045 54.0207 14.4471 55.605 13.2786 56.7735C12.1101 57.942 10.5259 58.5993 8.87335 58.6013ZM66.2178 46.1351C67.4506 46.1351 68.6557 46.5007 69.6808 47.1856C70.7058 47.8705 71.5047 48.844 71.9765 49.9829C72.4482 51.1219 72.5717 52.3751 72.3312 53.5842C72.0907 54.7934 71.497 55.904 70.6253 56.7757C69.7536 57.6474 68.643 58.2411 67.4339 58.4816C66.2248 58.7221 64.9715 58.5986 63.8325 58.1269C62.6936 57.6551 61.7201 56.8562 61.0352 55.8312C60.3503 54.8061 59.9847 53.601 59.9847 52.3682C59.9867 50.7157 60.6441 49.1315 61.8126 47.963C62.9811 46.7945 64.5653 46.1371 66.2178 46.1351ZM31.3125 8.73656C31.3125 7.50377 31.6781 6.29867 32.363 5.27364C33.0479 4.24861 34.0213 3.4497 35.1603 2.97793C36.2992 2.50616 37.5525 2.38273 38.7616 2.62323C39.9707 2.86374 41.0813 3.45738 41.9531 4.3291C42.8248 5.20081 43.4184 6.31144 43.6589 7.52054C43.8994 8.72965 43.776 9.98291 43.3042 11.1219C42.8325 12.2608 42.0335 13.2343 41.0085 13.9192C39.9835 14.6041 38.7784 14.9697 37.5456 14.9697C35.8931 14.9677 34.3088 14.3103 33.1403 13.1418C31.9718 11.9733 31.3145 10.3891 31.3125 8.73656ZM37.5456 28.6825C40.1897 28.6854 42.7246 29.7371 44.5943 31.6068C46.4639 33.4764 47.5156 36.0113 47.5185 38.6554V39.902C47.3243 39.2312 46.9473 38.6276 46.4297 38.1587C45.9122 37.6898 45.2744 37.3741 44.5877 37.2467C42.5641 36.9945 40.6129 36.3329 38.8533 35.302C38.4622 35.0528 38.0081 34.9204 37.5443 34.9204C37.0806 34.9204 36.6265 35.0528 36.2354 35.302C34.4756 36.3325 32.5246 36.9942 30.5009 37.2467C29.8147 37.3745 29.1775 37.6904 28.6604 38.1593C28.1433 38.6282 27.7667 39.2315 27.5726 39.902V38.6554C27.5756 36.0113 28.6273 33.4764 30.4969 31.6068C32.3666 29.7371 34.9015 28.6854 37.5456 28.6825ZM35.0524 55.6232C36.6516 56.2697 38.4395 56.2697 40.0388 55.6232V56.1081C40.0388 56.7693 39.7761 57.4035 39.3086 57.8711C38.841 58.3386 38.2068 58.6013 37.5456 58.6013C36.8843 58.6013 36.2502 58.3386 35.7826 57.8711C35.315 57.4035 35.0524 56.7693 35.0524 56.1081V55.6232ZM52.505 68.5743V71.0675C52.505 71.3981 52.3737 71.7152 52.1399 71.949C51.9061 72.1828 51.589 72.3141 51.2584 72.3141H23.8328C23.5022 72.3141 23.1851 72.1828 22.9513 71.949C22.7175 71.7152 22.5862 71.3981 22.5862 71.0675V68.5743C22.5897 65.7825 23.633 63.092 25.5125 61.0277C27.392 58.9633 29.9731 57.673 32.7523 57.4083C33.0328 58.4655 33.6549 59.4003 34.5218 60.0672C35.3887 60.7342 36.4518 61.0958 37.5456 61.0958C38.6394 61.0958 39.7024 60.7342 40.5694 60.0672C41.4363 59.4003 42.0584 58.4655 42.3388 57.4083C45.1181 57.673 47.6992 58.9633 49.5787 61.0277C51.4582 63.092 52.5015 65.7825 52.505 68.5743ZM46.5213 44.6392C46.2264 44.6393 45.941 44.7439 45.716 44.9345C45.4909 45.1251 45.3407 45.3893 45.2921 45.6801L44.8957 48.0487C44.7976 48.6325 44.5824 49.1903 44.263 49.6887C43.9435 50.187 43.5265 50.6155 43.0369 50.9483C42.8175 51.0967 42.5832 51.2625 42.3363 51.437C40.9638 52.4094 39.2547 53.6148 37.5456 53.6148C35.8365 53.6148 34.1274 52.4094 32.7548 51.4407C32.5055 51.2662 32.2736 51.1004 32.053 50.9521C31.5637 50.6189 31.1468 50.1901 30.8276 49.6916C30.5084 49.193 30.2934 48.635 30.1955 48.0512L29.7991 45.6826C29.751 45.3913 29.601 45.1265 29.3759 44.9354C29.1508 44.7444 28.8652 44.6394 28.5699 44.6392C28.3054 44.6392 28.0518 44.5341 27.8647 44.3471C27.6777 44.1601 27.5726 43.9064 27.5726 43.6419C27.5726 43.3774 27.6777 43.1237 27.8647 42.9367C28.0518 42.7497 28.3054 42.6446 28.5699 42.6446C28.9006 42.6446 29.2176 42.5133 29.4514 42.2795C29.6852 42.0457 29.8166 41.7286 29.8166 41.398C29.8166 40.5503 30.2815 39.7923 30.8537 39.7113C33.2134 39.4133 35.4856 38.6293 37.5269 37.4088C39.5836 38.6256 41.8671 39.4095 44.2374 39.7126C44.8096 39.7936 45.2746 40.5515 45.2746 41.3992C45.2746 41.7299 45.406 42.0469 45.6398 42.2807C45.8735 42.5145 46.1906 42.6458 46.5213 42.6458C46.7858 42.6458 47.0394 42.7509 47.2264 42.938C47.4135 43.125 47.5185 43.3786 47.5185 43.6431C47.5185 43.9076 47.4135 44.1613 47.2264 44.3483C47.0394 44.5354 46.7858 44.6392 46.5213 44.6392ZM66.2178 26.1892C67.4506 26.1892 68.6557 26.5548 69.6808 27.2397C70.7058 27.9246 71.5047 28.8981 71.9765 30.037C72.4482 31.176 72.5717 32.4292 72.3312 33.6383C72.0907 34.8474 71.497 35.9581 70.6253 36.8298C69.7536 37.7015 68.643 38.2952 67.4339 38.5357C66.2248 38.7762 64.9715 38.6527 63.8325 38.181C62.6936 37.7092 61.7201 36.9103 61.0352 35.8853C60.3503 34.8602 59.9847 33.6551 59.9847 32.4223C59.9867 30.7698 60.6441 29.1856 61.8126 28.017C62.9811 26.8485 64.5653 26.1912 66.2178 26.1892Z" fill="#F17B40"/>
<path d="M40.7868 5.24591C40.5223 5.04754 40.1898 4.96236 39.8625 5.00912C39.5352 5.05587 39.2399 5.23074 39.0415 5.49524L36.1643 9.33233L35.9337 9.1017C35.8187 8.98264 35.6811 8.88767 35.5291 8.82234C35.377 8.757 35.2134 8.72261 35.0479 8.72117C34.8823 8.71974 34.7182 8.75128 34.565 8.81396C34.4118 8.87664 34.2726 8.9692 34.1555 9.08625C34.0385 9.2033 33.9459 9.34249 33.8832 9.49569C33.8206 9.6489 33.789 9.81305 33.7905 9.97858C33.7919 10.1441 33.8263 10.3077 33.8916 10.4598C33.9569 10.6119 34.0519 10.7494 34.171 10.8644L35.4176 12.111C35.6513 12.3448 35.9684 12.4762 36.299 12.4763H36.3875C36.5659 12.4632 36.7393 12.412 36.8962 12.3259C37.053 12.2399 37.1894 12.1211 37.2963 11.9777L41.0361 6.99118C41.1343 6.86021 41.2058 6.71118 41.2464 6.55259C41.2871 6.39401 41.2961 6.22897 41.2729 6.06691C41.2498 5.90485 41.1949 5.74893 41.1115 5.60806C41.0281 5.4672 40.9178 5.34414 40.7868 5.24591Z" fill="#F17B40"/>
<path d="M20.3422 11.7284L17.465 15.5655L17.2344 15.3349C16.9993 15.1078 16.6844 14.9821 16.3576 14.985C16.0307 14.9878 15.718 15.1189 15.4869 15.35C15.2558 15.5812 15.1247 15.8938 15.1218 16.2207C15.119 16.5476 15.2446 16.8625 15.4717 17.0976L16.7183 18.3442C16.9521 18.578 17.2691 18.7094 17.5997 18.7095H17.6882C17.8666 18.6964 18.0401 18.6451 18.1969 18.5591C18.3537 18.473 18.4901 18.3543 18.597 18.2108L22.3368 13.2243C22.5352 12.9598 22.6204 12.6274 22.5736 12.3001C22.5269 11.9728 22.352 11.6774 22.0875 11.4791C21.9565 11.3808 21.8075 11.3094 21.6489 11.2687C21.4903 11.2281 21.3253 11.2191 21.1632 11.2423C20.8359 11.289 20.5406 11.4639 20.3422 11.7284Z" fill="#F17B40"/>
<path d="M10.3693 29.181L7.49209 33.0181L7.26146 32.7875C7.02635 32.5604 6.71145 32.4348 6.38459 32.4376C6.05773 32.4404 5.74506 32.5715 5.51393 32.8027C5.2828 33.0338 5.15169 33.3465 5.14885 33.6733C5.14601 34.0002 5.27166 34.3151 5.49874 34.5502L6.74536 35.7968C6.9791 36.0306 7.29613 36.162 7.62672 36.1621H7.71523C7.89362 36.149 8.06711 36.0977 8.22391 36.0117C8.38072 35.9257 8.51718 35.8069 8.62402 35.6634L12.3639 30.677C12.5623 30.4125 12.6474 30.08 12.6007 29.7527C12.5539 29.4254 12.3791 29.1301 12.1146 28.9317C11.8501 28.7333 11.5176 28.6481 11.1903 28.6949C10.863 28.7417 10.5677 28.9165 10.3693 29.181Z" fill="#F17B40"/>
<path d="M10.3693 49.1271L7.49209 52.9642L7.26146 52.7335C7.02635 52.5065 6.71145 52.3808 6.38459 52.3836C6.05773 52.3865 5.74506 52.5176 5.51393 52.7487C5.2828 52.9799 5.15169 53.2925 5.14885 53.6194C5.14601 53.9462 5.27166 54.2611 5.49874 54.4963L6.74536 55.7429C6.9791 55.9767 7.29613 56.1081 7.62672 56.1081H7.71523C7.89362 56.0951 8.06711 56.0438 8.22391 55.9577C8.38072 55.8717 8.51718 55.7529 8.62402 55.6095L12.3639 50.623C12.5623 50.3585 12.6474 50.026 12.6007 49.6987C12.5539 49.3714 12.3791 49.0761 12.1146 48.8777C11.8501 48.6794 11.5176 48.5942 11.1903 48.641C10.863 48.6877 10.5677 48.8626 10.3693 49.1271Z" fill="#F17B40"/>
<path d="M54.1169 18.3442C54.3506 18.578 54.6676 18.7094 54.9982 18.7095H55.0868C55.2651 18.6964 55.4386 18.6451 55.5954 18.5591C55.7522 18.473 55.8887 18.3543 55.9955 18.2108L59.7354 13.2243C59.9338 12.9598 60.0189 12.6274 59.9722 12.3001C59.9254 11.9728 59.7506 11.6774 59.4861 11.4791C59.2216 11.2807 58.8891 11.1955 58.5618 11.2423C58.2345 11.289 57.9392 11.4639 57.7408 11.7284L54.8636 15.5655L54.633 15.3349C54.3979 15.1078 54.083 14.9821 53.7561 14.985C53.4293 14.9878 53.1166 15.1189 52.8854 15.35C52.6543 15.5812 52.5232 15.8938 52.5204 16.2207C52.5175 16.5476 52.6432 16.8625 52.8703 17.0976L54.1169 18.3442Z" fill="#F17B40"/>
<path d="M64.0898 35.7968C64.3236 36.0306 64.6406 36.162 64.9712 36.1621H65.0597C65.2381 36.149 65.4116 36.0977 65.5684 36.0117C65.7252 35.9257 65.8617 35.8069 65.9685 35.6634L69.7084 30.677C69.8066 30.546 69.878 30.397 69.9187 30.2384C69.9593 30.0798 69.9683 29.9148 69.9452 29.7527C69.922 29.5906 69.8672 29.4347 69.7837 29.2938C69.7003 29.153 69.59 29.0299 69.459 28.9317C69.3281 28.8335 69.179 28.762 69.0205 28.7214C68.8619 28.6807 68.6968 28.6718 68.5348 28.6949C68.3727 28.7181 68.2168 28.7729 68.0759 28.8563C67.9351 28.9397 67.812 29.0501 67.7138 29.181L64.8366 33.0181L64.6059 32.7875C64.3708 32.5604 64.0559 32.4348 63.7291 32.4376C63.4022 32.4404 63.0895 32.5715 62.8584 32.8027C62.6273 33.0338 62.4962 33.3465 62.4933 33.6733C62.4905 34.0002 62.6161 34.3151 62.8432 34.5502L64.0898 35.7968Z" fill="#F17B40"/>
<path d="M64.0898 55.7429C64.3236 55.9767 64.6406 56.1081 64.9712 56.1081H65.0597C65.2381 56.0951 65.4116 56.0438 65.5684 55.9577C65.7252 55.8717 65.8617 55.7529 65.9685 55.6095L69.7084 50.623C69.8066 50.492 69.878 50.343 69.9187 50.1844C69.9593 50.0258 69.9683 49.8608 69.9452 49.6987C69.922 49.5367 69.8672 49.3808 69.7837 49.2399C69.7003 49.099 69.59 48.976 69.459 48.8777C69.3281 48.7795 69.179 48.708 69.0205 48.6674C68.8619 48.6268 68.6968 48.6178 68.5348 48.6409C68.3727 48.6641 68.2168 48.7189 68.0759 48.8024C67.9351 48.8858 67.812 48.9961 67.7138 49.1271L64.8366 52.9642L64.6059 52.7335C64.3708 52.5065 64.0559 52.3808 63.7291 52.3836C63.4022 52.3865 63.0895 52.5176 62.8584 52.7487C62.6273 52.9798 62.4962 53.2925 62.4933 53.6194C62.4905 53.9462 62.6161 54.2611 62.8432 54.4963L64.0898 55.7429Z" fill="#F17B40"/>
</svg>
