<svg width="70" height="70" viewBox="0 0 70 70" fill="none" xmlns="http://www.w3.org/2000/svg">
<path d="M11.6666 0V2.91626L15.3135 4.37483V11.6659H19.6883V4.37483L23.3352 2.91626V0H11.6666Z" fill="#F17B40"/>
<path d="M20.4156 22.6034C20.4156 23.8117 21.3955 24.7908 22.603 24.7908C23.8113 24.7908 24.7904 23.8117 24.7904 22.6034V21.1457C24.7904 19.9373 23.8113 18.9583 22.603 18.9583C21.3955 18.9583 20.4156 19.9373 20.4156 21.1457V22.6034Z" fill="#F17B40"/>
<path d="M10.2078 22.6034C10.2078 23.8117 11.1869 24.7908 12.3952 24.7908C13.6026 24.7908 14.5826 23.8117 14.5826 22.6034V21.1457C14.5826 19.9373 13.6026 18.9583 12.3952 18.9583C11.1869 18.9583 10.2078 19.9373 10.2078 21.1457V22.6034Z" fill="#F17B40"/>
<path d="M34.9986 17.4992C34.9986 12.686 31.0622 8.74951 26.249 8.74951H8.74966C3.93822 8.74951 0 12.686 0 17.4992V26.2488C0 31.062 3.93822 34.9985 8.74966 34.9985H26.249C31.0622 34.9985 34.9986 31.062 34.9986 26.2488V17.4992ZM29.1652 26.2488C29.1652 27.8299 27.83 29.1651 26.249 29.1651H8.74966C7.16859 29.1651 5.8334 27.8299 5.8334 26.2488V17.4992C5.8334 15.9181 7.16859 14.5829 8.74966 14.5829H26.249C27.83 14.5829 29.1652 15.9181 29.1652 17.4992V26.2488Z" fill="#F17B40"/>
<path d="M29.8939 62.7079C31.1025 62.7079 32.0822 61.7281 32.0822 60.5196C32.0822 59.311 31.1025 58.3313 29.8939 58.3313C28.6854 58.3313 27.7056 59.311 27.7056 60.5196C27.7056 61.7281 28.6854 62.7079 29.8939 62.7079Z" fill="#F17B40"/>
<path d="M29.8967 51.04H22.603C21.3964 51.04 20.4156 52.02 20.4156 53.2275C20.4156 54.4358 21.3964 55.4149 22.603 55.4149H29.8967C31.1041 55.4149 32.0841 54.4358 32.0841 53.2275C32.0841 52.02 31.1041 51.04 29.8967 51.04Z" fill="#F17B40"/>
<path d="M32.0824 39.3743H0V45.2077H32.0824C35.2979 45.2077 37.9149 47.8247 37.9149 51.0402V69.9981H43.7483V51.0402C43.7483 44.6232 38.4959 39.3743 32.0824 39.3743Z" fill="#F17B40"/>
<path d="M67.0837 37.9124L59.7891 45.207L52.498 37.915L55.5937 34.822L59.7891 39.021L70 28.8101L66.9044 25.7136L61.9967 30.6239H52.5007C50.8969 30.6239 49.5844 31.9373 49.5844 33.5402V45.207C49.5844 46.8099 50.8969 48.1232 52.5007 48.1232H64.1666C65.7704 48.1232 67.0837 46.8099 67.0837 45.207V37.9124Z" fill="#F17B40"/>
<path d="M67.0837 13.1224L59.7891 20.4161L52.498 13.125L55.5937 10.032L59.7891 14.2301L70 4.01921L66.9044 0.923584L61.9967 5.83389H52.5007C50.8969 5.83389 49.5844 7.14634 49.5844 8.75015V20.4161C49.5844 22.0199 50.8969 23.3332 52.5007 23.3332H64.1666C65.7704 23.3332 67.0837 22.0199 67.0837 20.4161V13.1224Z" fill="#F17B40"/>
<path d="M64.1664 52.4985H52.5004C50.8966 52.4985 49.5842 53.8119 49.5842 55.4148V67.0816C49.5842 68.6845 50.8966 69.9978 52.5004 69.9978H64.1664C65.7702 69.9978 67.0835 68.6845 67.0835 67.0816V55.4148C67.0835 53.8119 65.7702 52.4985 64.1664 52.4985ZM61.2501 64.1645H55.4167V58.3319H61.2501V64.1645Z" fill="#F17B40"/>
</svg>
