<svg width="93" height="77" viewBox="0 0 93 77" fill="none" xmlns="http://www.w3.org/2000/svg">
<path fill-rule="evenodd" clip-rule="evenodd" d="M47.2651 0.0205584C39.8551 -0.229442 32.3648 1.80065 25.9048 6.11065C18.6448 10.9606 13.5748 18.1306 11.2348 26.1406C10.5848 26.0606 9.81501 26.1006 8.89501 26.3606C5.465 27.3306 2.89485 30.1406 1.73485 32.6106C0.234849 35.8306 -0.404878 40.0906 0.265122 44.4907C0.925122 48.8806 2.78471 52.4907 5.09471 54.7407C7.41471 56.9907 10.0448 57.7206 12.6548 57.1706C16.5348 56.3406 18.465 55.7206 17.915 52.1106L15.2847 34.5806C15.8147 25.0906 20.7248 16.1606 28.9448 10.6706C39.9448 3.32058 54.3547 3.80064 64.8447 11.8506C72.1447 17.4406 76.3747 25.8307 76.8647 34.6307L75.0249 46.8906C70.9249 58.1206 60.7451 65.9007 48.9751 67.0107H41.1348C39.1147 67.0107 37.4848 68.6406 37.4848 70.6606V72.5906C37.4848 74.6106 39.1147 76.2407 41.1348 76.2407H51.0249C53.0449 76.2407 54.665 74.6106 54.665 72.5906V71.5806C63.545 69.4106 71.2949 63.9606 76.3349 56.3506L79.5049 57.1906C82.0849 57.8606 84.7349 57.0107 87.0649 54.7607C89.3849 52.5107 91.235 48.9007 91.895 44.5107C92.565 40.1107 91.9148 35.8607 90.4248 32.6307C88.9348 29.4007 86.715 27.3506 84.145 26.6106C83.075 26.3006 81.9048 26.1906 80.9048 26.1606C78.7948 18.9206 74.445 12.3306 68.165 7.52056C61.995 2.79056 54.6649 0.280578 47.2549 0.040578L47.2651 0.0205584Z" fill="url(#paint0_linear_176_85742)"/>
<path fill-rule="evenodd" clip-rule="evenodd" d="M58.8345 31.5602C61.4445 31.5602 63.5642 33.6802 63.5742 36.3002C63.5742 38.9102 61.4545 41.0402 58.8345 41.0402C56.2145 41.0402 54.0942 38.9202 54.0942 36.3002C54.0942 33.6802 56.2245 31.5602 58.8345 31.5602ZM46.0742 31.5602C48.6942 31.5602 50.8145 33.6802 50.8145 36.3002C50.8145 38.9202 48.6942 41.0402 46.0742 41.0402C43.4542 41.0402 41.3345 38.9202 41.3345 36.3002C41.3345 33.6802 43.4542 31.5602 46.0742 31.5602ZM33.3145 31.5602C35.9245 31.5602 38.0542 33.6802 38.0542 36.3002C38.0542 38.9202 35.9345 41.0402 33.3145 41.0402C30.6945 41.0402 28.5742 38.9202 28.5742 36.3002C28.5742 33.6802 30.6945 31.5602 33.3145 31.5602ZM46.0742 11.2102C32.1842 11.2102 20.9844 22.0402 20.9844 36.3002C20.9844 43.1502 23.5744 49.2001 27.7944 53.6401L26.2944 60.3502C25.8044 62.5602 27.3345 64.0402 29.3145 62.9402L35.8643 59.2802C38.9743 60.6301 42.4245 61.3802 46.0645 61.3802C59.9645 61.3802 71.1543 50.5602 71.1543 36.2902C71.1543 22.0202 59.9645 11.2002 46.0645 11.2002L46.0742 11.2102Z" fill="url(#paint1_linear_176_85742)"/>
<defs>
<linearGradient id="paint0_linear_176_85742" x1="-0.00492632" y1="38.1106" x2="92.155" y2="38.1106" gradientUnits="userSpaceOnUse">
<stop offset="0.19" stop-color="#5FA3FF" stop-opacity="0.2"/>
<stop offset="0.21" stop-color="#5497FB" stop-opacity="0.27"/>
<stop offset="0.28" stop-color="#3678F1" stop-opacity="0.46"/>
<stop offset="0.36" stop-color="#1E5FE9" stop-opacity="0.61"/>
<stop offset="0.42" stop-color="#0D4EE3" stop-opacity="0.71"/>
<stop offset="0.49" stop-color="#0343E0" stop-opacity="0.78"/>
<stop offset="0.54" stop-color="#0040DF" stop-opacity="0.8"/>
<stop offset="0.61" stop-color="#004EDF" stop-opacity="0.81"/>
<stop offset="0.74" stop-color="#0075DF" stop-opacity="0.85"/>
<stop offset="0.92" stop-color="#00B4DF" stop-opacity="0.92"/>
<stop offset="1" stop-color="#00D5DF" stop-opacity="0.95"/>
</linearGradient>
<linearGradient id="paint1_linear_176_85742" x1="20.9844" y1="37.2602" x2="71.1543" y2="37.2602" gradientUnits="userSpaceOnUse">
<stop stop-color="#FFF33B" stop-opacity="0.1"/>
<stop offset="0.06" stop-color="#FEE128" stop-opacity="0.14"/>
<stop offset="0.17" stop-color="#FDCD12" stop-opacity="0.19"/>
<stop offset="0.28" stop-color="#FDC70C" stop-opacity="0.2"/>
<stop offset="0.67" stop-color="#F3903F" stop-opacity="0.4"/>
<stop offset="0.89" stop-color="#ED683C"/>
<stop offset="1" stop-color="#E93E3A"/>
</linearGradient>
</defs>
</svg>
