<svg width="75" height="75" viewBox="0 0 75 75" fill="none" xmlns="http://www.w3.org/2000/svg">
<path d="M41.3094 35.0975L41.0311 34.0429C42.1883 33.0175 42.8768 31.5526 42.8914 29.9852C44.6492 29.7802 45.2791 27.3339 43.7996 26.3378C47.0809 20.1854 40.0936 14.4139 34.6736 18.9843C30.865 18.7792 28.8875 22.7196 30.9236 26.3085C29.4002 27.3046 30.0008 29.7802 31.7879 29.9852C31.8172 31.7138 32.6375 33.3104 33.9852 34.3212L33.7947 35.0975C27.2176 36.4598 24.6248 40.0048 24.991 47.329C25.0057 49.5702 26.8514 51.4013 29.0926 51.4159C34.3221 51.4452 40.7381 51.3866 46.0555 51.3573C48.282 51.3427 50.1131 49.5116 50.1424 47.2704C50.4647 39.9608 47.9158 36.4745 41.3094 35.0975ZM33.0477 25.3417C32.242 23.994 32.2713 22.5585 32.9305 21.87C34.117 20.8153 35.0984 21.8114 35.9481 20.9911C39.4344 17.6366 44.0486 21.3427 41.6463 25.4003C41.0164 24.9608 40.284 24.5507 39.5076 24.4628C38.658 24.3895 38.3211 24.5653 37.2811 24.5067C36.3289 24.4921 36.1385 24.3309 35.3182 24.3749C34.4979 24.4481 33.7068 24.829 33.0477 25.3417ZM34.117 28.872C34.1316 28.828 34.117 27.5829 34.117 27.5389C34.4539 27.1434 34.908 26.8212 35.4207 26.704C36.0506 26.6747 36.285 26.8212 37.2078 26.8358C38.7459 26.8944 39.5662 26.455 40.577 27.5389V28.8427V29.8827C40.577 31.0546 39.9324 32.1679 38.8631 32.7245C36.827 33.911 34.0438 32.2557 34.117 29.8827V28.872ZM36.3875 49.1014C35.2303 49.1014 34.1024 49.1014 33.0184 49.1014V48.2372C33.0184 47.5927 32.491 47.0653 31.8465 47.0653C31.202 47.0653 30.6746 47.5927 30.6746 48.2372V49.1014C30.1326 49.1014 29.5906 49.1014 29.0926 49.1014C28.1258 49.1014 27.3201 48.2958 27.3201 47.329L26.1483 47.3436L27.3201 47.2411C27.115 42.4071 27.994 38.7597 33.4871 37.6317L34.3953 37.3973L36.3875 39.3895V49.1014ZM37.5594 37.2362L36.0506 35.7274L36.1385 35.3466C37.0613 35.537 38.0281 35.5077 38.9217 35.244L39.0535 35.7421L37.5594 37.2362ZM47.7986 47.2264C47.8133 48.2079 47.0076 49.0282 46.0262 49.0429L44.4295 49.0575V48.2518C44.4295 47.6073 43.9022 47.08 43.2576 47.08C42.6131 47.08 42.0858 47.6073 42.0858 48.2518V49.0722L38.7166 49.0868V39.3602C38.7313 39.3456 40.6063 37.4706 40.6941 37.3827C46.8318 38.5839 48.0184 41.6014 47.7986 47.2264ZM37.5594 10.0634C35.4354 8.64246 33.282 7.36805 31.158 6.25477C32.2274 0.820196 25.0203 -2.18273 21.9295 2.38758C-0.189639 -3.91125 -4.07147 13.8427 8.01349 33.6766C5.96271 35.5223 5.97735 39.1552 8.01349 41.0009C-10.7951 73.9013 12.5984 81.87 37.5594 64.5848C39.9178 66.1522 42.2615 67.5292 44.576 68.7157C43.4627 74.2528 50.8602 77.2118 53.8777 72.4804C76.9637 78.7059 78.9559 57.9198 64.8201 37.3241C85.3426 6.48914 68.3943 -10.4445 37.5594 10.0634ZM68.8924 5.99109C73.8289 10.9276 71.6024 22.5585 63.4139 35.244C57.2322 26.4403 48.4578 17.6513 39.6541 11.4843C52.3397 3.29578 63.9705 1.06922 68.8924 5.99109ZM26.1483 2.47547C29.8104 2.57801 29.8104 7.92469 26.1483 8.02723C22.4861 7.91004 22.5008 2.57801 26.1483 2.47547ZM21.0945 4.55555C20.4207 9.69715 26.9979 12.4364 30.1912 8.36414C31.949 9.28699 33.7215 10.3417 35.4793 11.4843C27.5106 17.08 19.5711 24.7997 13.6238 32.6659C12.4813 32.1679 11.1775 32.1093 10.0057 32.4755C-0.585147 14.6337 1.09942 -1.04016 21.0945 4.55555ZM13.2137 39.5507C9.8006 41.8358 6.78302 36.5477 10.5037 34.7753C13.492 33.5595 15.8211 37.5878 13.2137 39.5507ZM6.22638 68.6571C1.64142 64.0722 3.09161 53.9794 10.0057 42.1874C11.1922 42.5536 12.4959 42.495 13.6238 41.997C19.5711 49.8632 27.5106 57.5829 35.4793 63.1786C22.7938 71.3671 11.1629 73.5936 6.22638 68.6571ZM37.5594 61.7723C29.5174 56.2645 21.4608 48.5009 15.4842 40.6054C17.0662 38.7743 17.0516 35.8739 15.4842 34.0429C21.4608 26.1473 29.5174 18.3837 37.5594 12.8759C46.6561 19.1014 55.782 28.2274 62.0076 37.3241C55.782 46.4208 46.6561 55.5468 37.5594 61.7723ZM49.5858 72.5389C45.9236 72.4364 45.9236 67.0897 49.5858 66.9872C53.2625 67.0897 53.2332 72.4364 49.5858 72.5389ZM68.8924 68.6571C66.0799 71.4696 61.0555 72.0409 54.6688 70.2831C55.1815 65.2147 48.7068 62.6366 45.5574 66.621C43.6092 65.6102 41.6317 64.453 39.6395 63.1786C48.4432 56.997 57.2322 48.2225 63.3992 39.4188C71.6024 52.1044 73.8289 63.7352 68.8924 68.6571Z" fill="#F17B40"/>
</svg>
