<svg width="165" height="165" viewBox="0 0 165 165" fill="none" xmlns="http://www.w3.org/2000/svg">
<path fill-rule="evenodd" clip-rule="evenodd" d="M82.5 0C36.9359 0 0 36.9359 0 82.5C0 128.064 36.9359 165 82.5 165C128.064 165 165 128.064 165 82.5C165 36.9359 128.064 0 82.5 0ZM119.484 61.5416C121.577 59.3416 121.495 55.8594 119.295 53.7659C117.095 51.6725 113.613 51.755 111.519 53.955L68.4991 99.1272L53.6147 82.3797C51.5969 80.1109 48.1216 79.9047 45.8494 81.9225C43.5806 83.9403 43.3744 87.4156 45.3922 89.6878L64.2503 110.901C65.2712 112.049 66.7288 112.719 68.2653 112.747C69.8019 112.774 71.2834 112.155 72.3422 111.042L119.484 61.5416Z" fill="black"/>
</svg>
